<svg id="svg" version="1.1" xmlns="http://www.w3.org/2000/svg" xmlns:xlink="http://www.w3.org/1999/xlink" width="400" height="400" viewBox="0, 0, 400,400"><g id="svgg"><path id="path0" d="M160.123 12.699 C 162.720 12.769,166.860 12.768,169.323 12.698 C 171.785 12.628,169.660 12.571,164.600 12.572 C 159.540 12.572,157.525 12.629,160.123 12.699 M149.400 13.200 L 147.400 13.474 149.600 13.509 C 150.810 13.528,152.160 13.389,152.600 13.200 C 153.596 12.772,152.521 12.772,149.400 13.200 M176.400 13.187 C 177.371 13.511,182.301 13.747,181.967 13.454 C 181.875 13.374,180.360 13.206,178.600 13.081 C 176.678 12.944,175.799 12.987,176.400 13.187 M143.800 14.000 L 142.200 14.286 143.800 14.315 C 144.680 14.331,145.760 14.189,146.200 14.000 L 147.000 13.656 146.200 13.685 C 145.760 13.701,144.680 13.842,143.800 14.000 M183.200 13.984 C 183.738 14.346,187.570 14.607,187.167 14.254 C 187.075 14.174,186.010 13.990,184.800 13.845 C 183.267 13.661,182.782 13.703,183.200 13.984 M139.400 14.800 L 138.200 15.105 139.400 15.147 C 140.060 15.169,140.870 15.013,141.200 14.800 C 141.943 14.320,141.287 14.320,139.400 14.800 M188.000 14.788 C 188.330 15.008,189.215 15.191,189.967 15.194 C 191.760 15.202,191.441 14.975,189.200 14.650 C 187.942 14.467,187.581 14.509,188.000 14.788 M135.800 15.600 L 134.600 15.905 135.800 15.947 C 136.460 15.969,137.270 15.813,137.600 15.600 C 138.343 15.120,137.687 15.120,135.800 15.600 M192.000 15.579 C 192.330 15.804,193.087 15.991,193.681 15.994 C 194.276 15.997,195.176 16.161,195.681 16.358 C 196.187 16.555,197.320 16.905,198.200 17.134 C 199.080 17.364,202.050 18.290,204.800 19.192 C 210.923 21.200,211.615 21.393,210.800 20.870 C 210.042 20.383,201.259 17.462,198.600 16.812 C 197.500 16.543,196.150 16.174,195.600 15.992 C 193.840 15.409,191.326 15.120,192.000 15.579 M130.892 16.830 C 128.516 17.468,124.671 18.663,121.243 19.829 C 120.936 19.934,120.765 20.099,120.863 20.196 C 120.961 20.294,122.561 19.854,124.420 19.218 C 126.279 18.582,129.224 17.689,130.964 17.234 C 132.704 16.779,134.219 16.315,134.330 16.203 C 134.657 15.877,133.981 16.000,130.892 16.830 M102.665 28.247 C 102.040 28.586,101.603 28.937,101.694 29.027 C 101.932 29.265,103.993 28.256,103.997 27.900 C 104.001 27.519,104.015 27.516,102.665 28.247 M227.000 28.713 C 227.220 28.940,228.030 29.477,228.800 29.908 C 231.302 31.307,234.545 33.358,237.200 35.219 C 240.244 37.353,240.800 37.703,240.800 37.488 C 240.800 37.400,239.405 36.332,237.700 35.114 C 233.561 32.156,225.880 27.562,227.000 28.713 M99.284 30.266 C 98.340 30.835,97.648 31.381,97.747 31.480 C 97.924 31.657,101.200 29.633,101.200 29.347 C 101.200 29.121,101.117 29.160,99.284 30.266 M93.131 34.183 C 91.006 35.604,89.143 36.968,88.991 37.215 C 88.736 37.627,96.109 32.774,96.980 31.957 C 97.885 31.107,96.742 31.768,93.131 34.183 M85.886 39.452 C 84.629 40.449,83.600 41.362,83.600 41.481 C 83.600 41.600,83.825 41.526,84.100 41.316 C 85.737 40.066,88.225 38.193,88.367 38.104 C 88.458 38.047,88.452 37.919,88.352 37.819 C 88.253 37.720,87.143 38.454,85.886 39.452 M241.200 37.900 C 241.200 38.069,241.560 38.432,242.000 38.707 C 242.440 38.982,242.800 39.069,242.800 38.900 C 242.800 38.731,242.440 38.368,242.000 38.093 C 241.560 37.818,241.200 37.731,241.200 37.900 M244.400 40.184 C 244.400 40.616,246.516 42.418,246.749 42.184 C 246.851 42.083,246.858 41.955,246.767 41.900 C 246.675 41.845,246.105 41.364,245.500 40.830 C 244.895 40.297,244.400 40.006,244.400 40.184 M82.015 42.584 C 80.602 44.088,78.160 45.664,76.708 46.008 C 75.423 46.313,75.420 46.319,76.528 46.359 C 77.943 46.410,83.741 42.408,83.133 41.800 C 83.025 41.692,82.522 42.045,82.015 42.584 M247.200 42.759 C 247.200 43.001,247.369 43.200,247.576 43.200 C 247.783 43.200,250.611 45.810,253.862 49.000 C 257.112 52.190,259.864 54.800,259.978 54.800 C 260.298 54.800,252.922 47.430,249.900 44.730 C 248.415 43.403,247.200 42.516,247.200 42.759 M70.700 44.488 C 71.195 44.727,71.600 45.075,71.600 45.261 C 71.600 45.448,71.825 45.594,72.100 45.587 C 72.375 45.579,72.175 45.219,71.656 44.787 C 71.136 44.354,70.506 44.012,70.256 44.027 C 70.005 44.042,70.205 44.249,70.700 44.488 M72.990 45.984 C 73.132 46.213,73.717 46.400,74.290 46.400 C 75.544 46.400,75.399 46.208,73.866 45.840 C 73.123 45.662,72.821 45.711,72.990 45.984 M63.600 52.182 C 63.600 52.282,64.050 53.028,64.600 53.838 C 66.558 56.724,65.934 58.890,61.441 64.796 C 60.021 66.663,58.949 68.282,59.059 68.392 C 59.170 68.503,59.431 68.288,59.639 67.915 C 59.848 67.542,61.140 65.729,62.509 63.887 C 66.584 58.405,66.992 56.682,64.947 53.591 C 63.970 52.116,63.600 51.728,63.600 52.182 M262.042 57.535 C 262.789 58.489,263.805 59.834,264.300 60.523 C 264.795 61.213,265.200 61.571,265.200 61.319 C 265.200 60.834,263.764 58.985,261.845 57.000 C 260.888 56.011,260.923 56.105,262.042 57.535 M263.420 63.960 C 262.852 65.082,262.464 66.000,262.559 66.000 C 262.851 66.000,264.823 62.290,264.633 62.099 C 264.534 62.001,263.989 62.838,263.420 63.960 M261.386 67.700 L 260.752 69.000 261.567 68.000 C 262.352 67.037,262.608 66.400,262.210 66.400 C 262.106 66.400,261.735 66.985,261.386 67.700 M55.386 73.700 L 54.752 75.000 55.567 74.000 C 56.352 73.037,56.608 72.400,56.210 72.400 C 56.106 72.400,55.735 72.985,55.386 73.700 M271.428 75.061 C 270.856 76.084,270.469 77.002,270.567 77.101 C 270.666 77.199,271.211 76.362,271.780 75.240 C 273.073 72.688,272.825 72.562,271.428 75.061 M257.414 74.635 C 257.041 75.204,256.827 75.761,256.939 75.872 C 257.050 75.983,257.429 75.518,257.781 74.837 C 258.559 73.333,258.344 73.215,257.414 74.635 M269.446 78.586 C 269.091 79.128,268.800 79.654,268.800 79.754 C 268.800 79.855,267.882 81.526,266.759 83.468 C 265.637 85.411,264.456 87.540,264.135 88.200 L 263.552 89.400 264.367 88.400 C 264.815 87.850,265.186 87.279,265.191 87.132 C 265.196 86.984,266.118 85.274,267.241 83.332 C 269.694 79.086,270.475 77.600,270.256 77.600 C 270.166 77.600,269.801 78.044,269.446 78.586 M52.453 78.701 C 48.861 85.413,47.868 87.600,48.413 87.600 C 48.626 87.600,48.800 87.353,48.800 87.051 C 48.800 86.749,49.799 84.589,51.020 82.251 C 52.240 79.913,53.147 78.000,53.034 78.000 C 52.921 78.000,52.659 78.316,52.453 78.701 M254.668 79.500 C 253.526 81.406,252.797 82.931,252.954 83.087 C 253.059 83.193,253.611 82.362,254.180 81.240 C 255.019 79.584,255.372 78.324,254.668 79.500 M279.850 85.100 C 282.728 91.206,282.904 91.602,283.624 93.600 C 283.901 94.370,284.293 95.180,284.495 95.400 C 284.817 95.752,284.161 93.733,283.194 91.400 C 282.236 89.087,277.620 79.600,277.453 79.600 C 277.346 79.600,278.424 82.075,279.850 85.100 M251.628 84.900 C 251.316 85.615,250.666 86.830,250.184 87.600 C 249.082 89.360,246.243 94.466,246.070 95.000 C 245.999 95.220,246.310 94.950,246.762 94.400 C 247.213 93.850,247.586 93.273,247.591 93.118 C 247.596 92.962,248.107 91.972,248.727 90.918 C 251.154 86.788,252.800 83.600,252.505 83.600 C 252.334 83.600,251.940 84.185,251.628 84.900 M262.586 90.900 L 261.952 92.200 262.767 91.200 C 263.552 90.237,263.808 89.600,263.410 89.600 C 263.306 89.600,262.935 90.185,262.586 90.900 M46.800 90.084 C 46.800 90.204,46.528 90.954,46.195 91.751 C 45.862 92.548,45.728 93.200,45.897 93.200 C 46.246 93.200,47.231 90.298,46.970 90.037 C 46.877 89.943,46.800 89.965,46.800 90.084 M261.019 93.563 C 260.667 94.243,260.519 94.799,260.690 94.797 C 261.055 94.793,262.069 92.735,261.825 92.492 C 261.734 92.400,261.371 92.882,261.019 93.563 M244.986 96.900 L 244.352 98.200 245.167 97.200 C 245.952 96.237,246.208 95.600,245.810 95.600 C 245.706 95.600,245.335 96.185,244.986 96.900 M284.828 96.676 C 284.813 97.158,284.980 97.664,285.200 97.800 C 285.673 98.092,285.673 97.701,285.200 96.600 C 284.869 95.829,284.855 95.831,284.828 96.676 M242.614 101.035 C 242.241 101.604,242.027 102.161,242.139 102.272 C 242.250 102.383,242.629 101.918,242.981 101.237 C 243.759 99.733,243.544 99.615,242.614 101.035 M286.428 101.476 C 286.413 101.958,286.580 102.464,286.800 102.600 C 287.273 102.892,287.273 102.501,286.800 101.400 C 286.469 100.629,286.455 100.631,286.428 101.476 M287.234 103.800 C 287.222 104.240,287.387 104.870,287.600 105.200 C 288.114 105.995,288.114 104.996,287.600 103.800 L 287.256 103.000 287.234 103.800 M240.667 104.667 C 240.300 105.033,240.329 108.309,240.700 108.538 C 240.865 108.640,241.000 107.751,241.000 106.562 C 241.000 105.373,240.985 104.400,240.967 104.400 C 240.948 104.400,240.813 104.520,240.667 104.667 M41.246 106.267 C 41.221 106.524,41.084 107.064,40.941 107.467 C 40.740 108.036,40.794 108.097,41.179 107.742 C 41.452 107.491,41.589 106.951,41.484 106.542 C 41.379 106.134,41.272 106.010,41.246 106.267 M252.965 108.100 C 252.605 108.815,251.755 109.985,251.077 110.700 C 250.398 111.415,249.992 112.000,250.175 112.000 C 250.684 112.000,252.357 109.975,253.232 108.300 C 253.664 107.475,253.927 106.800,253.818 106.800 C 253.710 106.800,253.326 107.385,252.965 108.100 M40.200 110.000 C 40.050 110.473,40.017 110.950,40.127 111.060 C 40.237 111.170,40.450 110.873,40.600 110.400 C 40.750 109.927,40.783 109.450,40.673 109.340 C 40.563 109.230,40.350 109.527,40.200 110.000 M241.200 109.494 C 241.201 109.924,243.168 112.165,243.369 111.964 C 243.460 111.874,243.009 111.212,242.367 110.493 C 241.725 109.775,241.200 109.325,241.200 109.494 M288.834 109.800 C 288.822 110.240,288.987 110.870,289.200 111.200 C 289.714 111.995,289.714 110.996,289.200 109.800 L 288.856 109.000 288.834 109.800 M39.429 113.429 C 39.281 114.015,39.251 114.584,39.361 114.694 C 39.471 114.804,39.681 114.415,39.829 113.829 C 39.976 113.242,40.006 112.673,39.896 112.563 C 39.786 112.453,39.576 112.842,39.429 113.429 M289.646 113.200 C 289.627 113.750,289.787 114.470,290.000 114.800 C 290.494 115.564,290.494 114.742,290.000 113.200 L 289.680 112.200 289.646 113.200 M38.849 116.800 C 38.816 117.130,38.689 117.850,38.567 118.400 C 38.375 119.264,38.407 119.303,38.799 118.688 C 39.048 118.297,39.175 117.577,39.081 117.088 C 38.986 116.600,38.882 116.470,38.849 116.800 M290.440 117.476 C 290.418 118.178,290.580 118.864,290.800 119.000 C 291.260 119.284,291.260 118.636,290.800 117.200 C 290.494 116.245,290.478 116.257,290.440 117.476 M37.890 122.350 C 37.731 123.093,37.620 124.263,37.644 124.950 C 37.681 126.017,37.741 125.936,38.049 124.400 C 38.248 123.410,38.359 122.240,38.296 121.800 C 38.218 121.259,38.086 121.437,37.890 122.350 M291.253 122.400 C 291.231 123.170,291.387 124.070,291.600 124.400 C 292.077 125.139,292.077 124.076,291.600 122.200 L 291.295 121.000 291.253 122.400 M36.996 130.836 C 36.837 132.424,36.871 133.831,37.073 134.033 C 37.511 134.471,167.208 134.737,166.938 134.300 C 166.836 134.135,137.596 134.000,101.960 134.000 L 37.167 134.000 37.438 131.000 C 37.588 129.350,37.614 128.000,37.496 128.000 C 37.378 128.000,37.153 129.276,36.996 130.836 M292.090 130.000 C 292.084 131.210,292.224 132.650,292.400 133.200 C 292.851 134.609,292.866 132.102,292.420 129.600 L 292.100 127.800 292.090 130.000 M168.957 136.149 C 169.640 136.892,170.277 137.430,170.371 137.345 C 170.577 137.160,168.363 134.800,167.982 134.800 C 167.834 134.800,168.273 135.407,168.957 136.149 M170.560 138.800 C 170.686 139.350,170.794 168.510,170.801 203.600 C 170.807 238.690,170.944 267.580,171.106 267.800 C 171.287 268.046,172.787 268.111,175.000 267.969 L 178.600 267.738 174.900 267.669 L 171.200 267.600 171.194 203.300 C 171.190 158.225,171.060 138.821,170.759 138.400 C 170.423 137.929,170.380 138.016,170.560 138.800 M292.297 147.600 C 292.140 148.150,292.030 149.590,292.054 150.800 L 292.098 153.000 292.455 150.600 C 292.871 147.811,292.772 145.941,292.297 147.600 M291.473 156.553 C 291.323 156.945,291.216 157.746,291.236 158.333 C 291.270 159.328,291.298 159.309,291.657 158.063 C 292.073 156.619,291.923 155.382,291.473 156.553 M273.733 161.588 C 264.236 161.705,256.376 161.890,256.266 162.000 C 256.156 162.110,263.836 162.145,273.333 162.077 C 283.441 162.006,290.758 161.798,290.980 161.577 C 291.189 161.370,291.279 161.240,291.180 161.288 C 291.081 161.336,283.230 161.471,273.733 161.588 M252.416 163.424 C 249.854 164.617,247.204 166.698,245.940 168.511 C 245.407 169.274,245.995 168.841,247.381 167.447 C 248.948 165.871,250.659 164.654,252.561 163.761 C 254.122 163.028,255.220 162.424,255.000 162.418 C 254.780 162.413,253.617 162.865,252.416 163.424 M242.267 175.867 C 242.120 176.013,242.015 176.598,242.034 177.167 C 242.068 178.181,242.075 178.179,242.421 177.020 C 242.785 175.803,242.731 175.402,242.267 175.867 M240.229 243.429 C 239.805 243.738,239.536 244.069,239.630 244.163 C 239.724 244.257,240.148 244.081,240.571 243.771 C 240.995 243.462,241.264 243.131,241.170 243.037 C 241.076 242.943,240.652 243.119,240.229 243.429 M238.100 244.888 C 237.605 245.127,237.200 245.479,237.200 245.670 C 237.200 245.862,237.650 245.724,238.200 245.363 C 239.667 244.402,239.616 244.157,238.100 244.888 M235.193 246.946 C 232.699 248.640,225.591 252.800,225.191 252.800 C 224.976 252.800,224.800 252.993,224.800 253.229 C 224.800 253.729,227.861 252.055,233.100 248.693 C 236.309 246.633,237.153 246.000,236.693 246.000 C 236.634 246.000,235.959 246.426,235.193 246.946 M206.400 261.200 C 205.867 261.545,205.867 261.588,206.400 261.588 C 206.730 261.588,207.270 261.413,207.600 261.200 C 208.133 260.855,208.133 260.812,207.600 260.812 C 207.270 260.812,206.730 260.987,206.400 261.200 M204.000 262.000 C 203.467 262.345,203.467 262.388,204.000 262.388 C 204.330 262.388,204.870 262.213,205.200 262.000 C 205.733 261.655,205.733 261.612,205.200 261.612 C 204.870 261.612,204.330 261.787,204.000 262.000 M201.400 262.800 L 200.600 263.144 201.400 263.166 C 201.840 263.178,202.470 263.013,202.800 262.800 C 203.595 262.286,202.596 262.286,201.400 262.800 M195.800 264.202 C 193.820 264.711,191.120 265.332,189.800 265.580 C 188.480 265.829,186.632 266.205,185.694 266.416 C 184.756 266.627,183.226 266.818,182.294 266.840 C 181.362 266.862,180.150 267.031,179.600 267.216 C 178.379 267.626,182.955 267.313,185.600 266.806 C 186.590 266.616,188.570 266.241,190.000 265.973 C 193.341 265.346,200.055 263.679,200.325 263.408 C 200.691 263.042,199.490 263.253,195.800 264.202 M186.100 327.500 C 191.765 327.562,201.035 327.562,206.700 327.500 C 212.365 327.437,207.730 327.386,196.400 327.386 C 185.070 327.386,180.435 327.437,186.100 327.500 M173.800 328.045 C 173.360 328.260,172.595 329.055,172.100 329.812 L 171.200 331.189 171.200 359.397 L 171.200 387.606 196.300 387.503 L 221.400 387.400 221.400 359.400 C 221.400 331.657,221.265 328.601,220.094 329.772 C 219.962 329.905,220.066 330.226,220.327 330.487 C 220.682 330.842,220.800 337.962,220.800 359.080 L 220.800 387.200 196.200 387.200 L 171.600 387.200 171.600 359.480 L 171.600 331.760 172.689 330.080 C 173.295 329.146,174.094 328.400,174.489 328.400 C 174.880 328.400,175.200 328.220,175.200 328.000 C 175.200 327.517,174.859 327.528,173.800 328.045 " stroke="none" fill="#78a0da" fill-rule="evenodd"></path><path id="path1" d="M153.090 13.043 C 152.933 13.201,151.318 13.481,149.502 13.666 C 145.620 14.062,142.144 14.587,139.500 15.176 C 138.455 15.409,136.835 15.761,135.900 15.957 C 130.003 17.194,117.535 21.319,113.905 23.234 C 113.523 23.435,112.938 23.600,112.605 23.600 C 112.272 23.600,112.000 23.780,112.000 24.000 C 112.000 24.220,111.755 24.400,111.456 24.400 C 110.799 24.400,105.855 26.876,105.667 27.300 C 105.593 27.465,105.188 27.600,104.767 27.600 C 104.345 27.600,104.000 27.736,104.000 27.902 C 104.000 28.069,103.415 28.458,102.700 28.768 C 101.985 29.077,100.648 29.841,99.728 30.465 C 98.808 31.089,97.951 31.600,97.822 31.600 C 97.570 31.600,88.730 37.570,88.400 37.963 C 88.290 38.095,87.125 39.012,85.810 40.001 C 84.496 40.990,82.876 42.315,82.210 42.945 C 78.061 46.871,74.186 47.565,71.287 44.900 C 70.385 44.071,68.400 44.681,68.400 45.786 C 68.400 45.920,67.320 47.096,66.000 48.400 C 63.217 51.149,63.226 51.112,64.800 53.400 C 66.121 55.320,66.428 58.072,65.500 59.674 C 65.012 60.516,60.516 66.704,59.374 68.105 C 59.058 68.492,58.800 68.987,58.800 69.205 C 58.800 69.422,58.620 69.600,58.400 69.600 C 58.180 69.600,58.000 69.870,58.000 70.200 C 58.000 70.530,57.820 70.800,57.600 70.800 C 57.380 70.800,57.200 71.070,57.200 71.400 C 57.200 71.730,57.041 72.000,56.847 72.000 C 56.652 72.000,56.393 72.315,56.271 72.700 C 56.048 73.404,54.781 75.627,54.390 76.000 C 54.275 76.110,53.618 77.280,52.930 78.600 C 52.243 79.920,51.032 82.230,50.240 83.733 C 49.448 85.236,48.800 86.721,48.800 87.033 C 48.800 87.345,48.620 87.600,48.400 87.600 C 48.180 87.600,48.000 87.836,48.000 88.125 C 48.000 88.414,47.640 89.395,47.200 90.306 C 46.760 91.216,46.400 92.240,46.400 92.581 C 46.400 92.921,46.220 93.200,46.000 93.200 C 45.780 93.200,45.600 93.562,45.600 94.005 C 45.600 94.448,45.392 95.213,45.138 95.705 C 44.144 97.626,44.000 98.016,44.000 98.771 C 44.000 99.201,43.820 99.664,43.600 99.800 C 43.380 99.936,43.200 100.476,43.200 101.000 C 43.200 101.524,43.020 102.064,42.800 102.200 C 42.580 102.336,42.400 102.876,42.400 103.400 C 42.400 103.924,42.220 104.464,42.000 104.600 C 41.780 104.736,41.600 105.456,41.600 106.200 C 41.600 106.944,41.440 107.652,41.244 107.773 C 41.049 107.894,40.788 108.579,40.666 109.296 C 40.544 110.013,40.245 111.500,40.001 112.600 C 39.574 114.526,39.052 117.283,38.639 119.800 C 38.336 121.645,37.645 127.869,37.385 131.100 L 37.152 134.000 101.781 134.000 C 152.741 134.000,166.600 134.106,167.305 134.500 C 167.797 134.775,168.621 135.360,169.135 135.800 C 171.307 137.658,171.200 134.165,171.200 203.493 L 171.200 267.688 175.500 267.455 C 180.697 267.174,183.718 266.762,191.600 265.261 C 196.168 264.392,207.725 261.027,211.100 259.585 C 211.595 259.373,212.405 259.046,212.900 258.857 C 213.395 258.668,214.582 258.128,215.538 257.657 C 216.494 257.186,217.529 256.800,217.838 256.800 C 218.147 256.800,218.400 256.620,218.400 256.400 C 218.400 256.180,218.645 256.000,218.944 256.000 C 219.601 256.000,224.545 253.524,224.733 253.100 C 224.807 252.935,225.035 252.800,225.240 252.800 C 225.850 252.800,236.422 246.361,237.502 245.331 C 237.779 245.068,238.364 244.738,238.802 244.599 C 239.241 244.460,239.600 244.217,239.600 244.059 C 239.600 243.902,240.140 243.454,240.800 243.064 L 242.000 242.355 242.000 209.201 C 242.000 187.530,242.139 175.962,242.400 175.800 C 242.620 175.664,242.800 175.023,242.800 174.376 C 242.800 173.729,242.980 173.200,243.200 173.200 C 243.420 173.200,243.600 172.928,243.600 172.595 C 243.600 170.657,248.264 165.490,251.482 163.861 C 255.413 161.872,255.655 161.848,273.800 161.618 L 291.000 161.400 291.314 158.800 C 292.574 148.355,292.851 137.327,292.058 129.200 C 291.812 126.670,291.509 123.520,291.387 122.200 C 291.264 120.880,291.002 119.440,290.805 119.000 C 290.607 118.560,290.357 117.480,290.249 116.600 C 290.140 115.720,289.852 114.100,289.608 113.000 C 289.364 111.900,289.070 110.460,288.955 109.800 C 288.840 109.140,288.598 108.240,288.418 107.800 C 288.238 107.360,287.870 106.190,287.600 105.200 C 287.330 104.210,286.970 103.040,286.800 102.600 C 286.630 102.160,286.259 100.990,285.976 100.000 C 285.693 99.010,285.312 98.029,285.130 97.820 C 284.949 97.611,284.800 97.062,284.800 96.600 C 284.800 96.138,284.649 95.589,284.464 95.380 C 284.279 95.171,283.897 94.370,283.614 93.600 C 282.110 89.502,275.723 76.313,275.124 76.067 C 274.946 75.993,274.800 75.751,274.800 75.528 C 274.800 75.306,274.423 74.594,273.963 73.948 L 273.126 72.772 269.834 78.686 C 266.290 85.054,265.031 87.298,263.595 89.800 C 263.090 90.680,262.300 92.120,261.838 93.000 C 261.377 93.880,260.910 94.690,260.799 94.800 C 260.689 94.910,260.329 95.540,260.000 96.200 C 259.671 96.860,259.311 97.490,259.200 97.600 C 259.089 97.710,258.729 98.340,258.400 99.000 C 258.071 99.660,257.711 100.290,257.601 100.400 C 257.490 100.510,257.018 101.320,256.552 102.200 C 251.416 111.886,250.576 112.800,246.800 112.800 C 243.997 112.800,242.655 111.991,241.221 109.437 C 239.757 106.831,240.017 105.764,243.739 99.100 C 244.322 98.055,245.274 96.345,245.853 95.300 C 246.432 94.255,247.715 91.960,248.704 90.200 C 249.693 88.440,250.884 86.280,251.351 85.400 C 251.818 84.520,252.290 83.710,252.400 83.600 C 252.510 83.490,252.974 82.680,253.430 81.800 C 254.504 79.731,255.348 78.252,255.600 78.000 C 255.710 77.890,256.174 77.080,256.630 76.200 C 257.706 74.127,258.549 72.651,258.801 72.400 C 258.911 72.290,259.271 71.666,259.601 71.014 C 259.930 70.362,261.250 67.933,262.534 65.615 C 265.155 60.886,265.174 61.390,262.237 57.800 C 260.130 55.224,249.929 45.014,247.647 43.196 C 246.683 42.428,245.513 41.436,245.047 40.991 C 244.581 40.547,243.570 39.741,242.800 39.202 C 242.030 38.663,241.220 38.072,241.000 37.889 C 240.039 37.090,234.426 33.270,232.622 32.187 C 231.535 31.534,229.825 30.497,228.822 29.882 C 227.820 29.268,226.685 28.662,226.300 28.536 C 225.915 28.410,225.600 28.148,225.600 27.953 C 225.600 27.759,225.255 27.600,224.833 27.600 C 224.412 27.600,224.007 27.464,223.933 27.298 C 223.765 26.918,219.574 24.879,213.600 22.272 C 211.021 21.147,203.868 18.680,200.564 17.777 C 199.264 17.421,197.570 16.953,196.800 16.735 C 193.071 15.682,185.826 14.326,179.800 13.555 C 175.971 13.065,153.499 12.634,153.090 13.043 M175.200 328.000 C 175.200 328.220,174.880 328.400,174.489 328.400 C 174.094 328.400,173.295 329.146,172.689 330.080 L 171.600 331.760 171.600 359.480 L 171.600 387.200 196.200 387.200 L 220.800 387.200 220.800 359.280 C 220.800 328.982,220.875 330.002,218.525 328.461 C 217.059 327.500,175.200 327.055,175.200 328.000 " stroke="none" fill="#9cc4fc" fill-rule="evenodd"></path><path id="path2" d="M158.600 12.000 C 157.208 12.154,159.812 12.267,164.800 12.268 C 170.709 12.270,172.461 12.182,170.400 11.988 C 166.722 11.641,161.802 11.646,158.600 12.000 M149.000 12.819 C 148.295 13.009,149.369 13.052,151.600 12.921 C 153.690 12.799,155.475 12.631,155.567 12.549 C 155.886 12.263,150.191 12.497,149.000 12.819 M173.633 12.552 C 173.725 12.636,175.600 12.808,177.800 12.935 C 180.225 13.075,181.406 13.031,180.800 12.823 C 179.833 12.491,173.296 12.244,173.633 12.552 M143.600 13.600 L 142.600 13.920 143.600 13.937 C 144.150 13.946,145.320 13.805,146.200 13.623 L 147.800 13.292 146.200 13.286 C 145.320 13.283,144.150 13.424,143.600 13.600 M183.400 13.623 C 184.280 13.805,185.450 13.946,186.000 13.937 L 187.000 13.920 186.000 13.600 C 185.450 13.424,184.280 13.283,183.400 13.286 L 181.800 13.292 183.400 13.623 M139.400 14.400 L 138.600 14.744 139.400 14.725 C 139.840 14.714,140.740 14.568,141.400 14.400 L 142.600 14.095 141.400 14.075 C 140.740 14.065,139.840 14.211,139.400 14.400 M188.000 14.400 C 189.467 14.870,191.294 14.870,190.200 14.400 C 189.760 14.211,188.860 14.062,188.200 14.068 C 187.030 14.079,187.025 14.088,188.000 14.400 M133.400 15.643 C 129.212 16.775,119.251 20.006,117.200 20.897 C 116.210 21.328,115.040 21.829,114.600 22.010 C 112.561 22.853,102.787 27.745,101.000 28.818 C 99.900 29.478,98.730 30.136,98.400 30.280 C 96.235 31.223,87.610 37.424,82.524 41.695 C 80.721 43.209,78.561 44.789,77.724 45.207 C 76.886 45.626,76.490 45.975,76.844 45.984 C 77.637 46.004,79.847 44.526,82.781 42.015 C 92.421 33.766,106.053 25.675,117.800 21.230 C 119.120 20.731,120.560 20.167,121.000 19.978 C 122.850 19.182,128.550 17.443,133.400 16.195 C 136.260 15.460,138.060 14.864,137.400 14.872 C 136.740 14.880,134.940 15.227,133.400 15.643 M192.000 15.200 C 193.467 15.670,195.294 15.670,194.200 15.200 C 193.760 15.011,192.860 14.862,192.200 14.868 C 191.030 14.879,191.025 14.888,192.000 15.200 M195.273 15.806 C 195.548 16.081,199.910 17.210,200.520 17.164 C 200.784 17.143,199.920 16.786,198.600 16.369 C 196.257 15.629,194.859 15.392,195.273 15.806 M201.252 17.385 C 201.354 17.487,203.049 18.099,205.018 18.745 C 209.434 20.193,214.085 22.032,217.889 23.832 C 219.477 24.585,220.849 25.200,220.937 25.200 C 221.195 25.200,228.337 29.156,231.600 31.107 C 234.161 32.638,242.192 38.146,242.800 38.789 C 242.910 38.905,243.810 39.625,244.800 40.388 C 250.035 44.427,263.322 57.802,264.931 60.654 C 265.301 61.310,264.722 62.537,260.800 69.400 C 259.063 72.440,252.998 83.279,251.288 86.400 C 250.745 87.390,249.986 88.740,249.600 89.400 C 249.214 90.060,248.452 91.410,247.906 92.400 C 247.360 93.390,246.528 94.875,246.057 95.700 C 240.436 105.543,240.203 106.197,241.346 108.932 C 241.967 110.418,244.132 112.401,245.131 112.398 C 245.515 112.397,245.161 112.009,244.301 111.488 C 240.745 109.335,240.460 105.176,243.585 101.000 C 243.749 100.780,244.566 99.340,245.401 97.800 C 246.235 96.260,248.035 93.020,249.401 90.600 C 250.767 88.180,252.335 85.390,252.886 84.400 C 253.436 83.410,254.300 81.880,254.805 81.000 C 255.310 80.120,256.248 78.414,256.888 77.209 C 257.529 76.004,258.195 74.834,258.369 74.609 C 258.543 74.384,259.224 73.210,259.883 72.000 C 260.543 70.790,261.438 69.170,261.872 68.400 C 266.403 60.367,266.314 61.549,262.707 57.249 C 254.208 47.118,243.675 38.127,231.210 30.364 C 227.777 28.226,218.863 23.632,215.000 22.009 C 209.123 19.542,200.512 16.645,201.252 17.385 M72.014 44.974 C 72.336 45.289,73.140 45.658,73.800 45.794 C 74.893 46.019,74.860 45.968,73.429 45.220 C 71.576 44.253,71.214 44.190,72.014 44.974 M63.232 51.938 C 63.214 52.234,63.605 53.044,64.100 53.738 C 65.809 56.134,64.708 61.085,61.996 63.200 C 61.855 63.310,60.956 64.570,59.998 66.000 C 59.039 67.430,58.108 68.660,57.928 68.733 C 57.747 68.807,57.600 69.044,57.600 69.261 C 57.600 69.478,57.083 70.408,56.451 71.328 C 53.534 75.573,48.146 85.479,48.539 85.873 C 48.644 85.977,49.287 84.924,49.968 83.531 C 53.282 76.762,57.374 70.125,62.009 64.000 C 65.932 58.817,66.502 56.641,64.654 53.917 C 64.134 53.151,63.608 52.271,63.485 51.962 C 63.309 51.515,63.257 51.510,63.232 51.938 M272.376 72.451 C 272.099 72.973,270.217 76.370,268.195 80.000 C 266.172 83.630,264.066 87.410,263.515 88.400 C 262.586 90.069,262.191 90.766,260.000 94.600 C 259.560 95.370,258.822 96.675,258.359 97.500 C 257.896 98.325,256.156 101.430,254.491 104.400 C 250.995 110.635,250.385 111.336,247.745 112.147 C 245.592 112.808,246.169 113.026,248.418 112.402 C 250.149 111.921,251.902 110.122,253.489 107.200 C 254.146 105.990,255.160 104.145,255.742 103.100 C 256.324 102.055,257.250 100.390,257.800 99.400 C 259.694 95.990,260.933 93.783,264.200 88.000 C 268.306 80.730,269.412 78.757,270.921 76.000 C 273.115 71.992,272.940 72.078,274.449 74.269 C 275.912 76.392,281.985 88.193,282.734 90.365 C 282.992 91.116,283.302 91.632,283.422 91.512 C 283.790 91.143,279.783 82.584,276.862 77.500 C 276.388 76.675,275.625 75.325,275.166 74.500 C 273.687 71.840,272.978 71.320,272.376 72.451 M47.585 87.439 C 47.345 88.071,46.866 89.182,46.522 89.908 C 46.177 90.634,45.983 91.317,46.091 91.424 C 46.199 91.532,46.768 90.511,47.356 89.156 C 47.943 87.800,48.334 86.601,48.223 86.490 C 48.113 86.379,47.826 86.806,47.585 87.439 M45.023 93.406 C 44.681 94.226,44.400 95.135,44.400 95.425 C 44.400 95.715,44.220 96.064,44.000 96.200 C 43.780 96.336,43.600 96.851,43.600 97.344 C 43.600 97.837,43.451 98.411,43.270 98.620 C 43.088 98.829,42.707 99.810,42.424 100.800 C 42.141 101.790,41.762 102.960,41.582 103.400 C 41.016 104.784,39.531 110.833,38.784 114.800 C 37.315 122.595,36.100 133.042,36.532 134.167 C 36.747 134.728,43.336 134.801,101.953 134.895 L 167.136 135.000 168.219 136.000 C 170.529 138.131,170.400 134.115,170.400 204.000 C 170.400 262.055,170.462 268.449,171.025 268.665 C 171.369 268.797,172.944 268.716,174.525 268.486 L 177.400 268.067 174.300 268.141 C 172.595 268.182,171.157 268.212,171.105 268.208 C 171.052 268.203,170.917 238.950,170.805 203.200 L 170.600 138.200 169.672 136.899 C 167.924 134.448,172.502 134.617,102.000 134.400 L 37.000 134.200 37.027 132.400 C 37.176 122.292,40.770 105.552,45.176 94.448 C 46.134 92.032,45.995 91.080,45.023 93.406 M283.762 92.600 C 283.861 93.040,284.688 95.470,285.599 98.000 C 289.075 107.646,290.763 115.300,292.391 128.800 C 293.275 136.132,292.769 151.916,291.417 159.200 L 290.934 161.800 273.367 162.000 L 255.800 162.200 252.762 163.645 C 247.550 166.125,243.935 170.623,242.572 176.326 C 242.138 178.141,242.026 185.040,242.014 210.529 C 242.002 237.198,241.909 242.548,241.446 243.012 C 238.661 245.796,221.404 255.701,214.400 258.534 C 213.410 258.935,212.240 259.411,211.800 259.594 C 210.023 260.331,207.253 261.320,204.406 262.234 C 199.699 263.746,199.186 263.894,196.020 264.642 C 194.382 265.030,193.248 265.416,193.502 265.501 C 194.474 265.825,205.616 262.513,212.000 260.003 C 221.340 256.330,231.846 250.564,239.500 244.910 L 242.400 242.769 242.400 211.517 C 242.400 171.696,242.625 170.446,250.711 165.257 C 254.832 162.612,254.477 162.656,273.794 162.417 L 291.387 162.200 291.692 160.600 C 294.607 145.313,293.432 123.686,288.741 106.300 C 287.448 101.508,283.034 89.361,283.762 92.600 M73.000 171.198 L 133.800 171.400 133.901 232.083 L 134.003 292.766 131.000 292.910 L 127.997 293.054 131.099 293.027 L 134.200 293.000 134.301 232.224 C 134.382 183.868,134.300 171.384,133.901 171.131 C 133.626 170.955,106.130 170.854,72.800 170.904 L 12.200 170.996 73.000 171.198 M11.899 173.800 C 12.016 175.340,12.177 176.675,12.256 176.767 C 12.534 177.088,12.317 172.989,12.003 172.000 C 11.819 171.419,11.775 172.173,11.899 173.800 M269.500 173.900 C 275.055 173.962,284.145 173.962,289.700 173.900 C 295.255 173.837,290.710 173.786,279.600 173.786 C 268.490 173.786,263.945 173.837,269.500 173.900 M301.399 174.630 C 302.059 174.974,302.879 175.468,303.221 175.728 C 303.564 175.987,303.301 175.705,302.637 175.100 C 301.973 174.495,301.153 174.001,300.815 174.002 C 300.477 174.004,300.740 174.286,301.399 174.630 M12.447 179.233 C 12.473 180.425,12.633 181.940,12.802 182.600 C 12.976 183.281,13.018 182.415,12.898 180.600 C 12.655 176.899,12.378 176.058,12.447 179.233 M304.924 253.200 C 304.887 294.010,304.979 327.708,305.128 328.085 C 305.374 328.705,305.351 239.422,305.095 196.400 C 305.038 186.830,304.961 212.390,304.924 253.200 M13.240 185.233 C 13.262 185.985,13.430 187.050,13.613 187.600 C 13.829 188.246,13.866 187.820,13.719 186.400 C 13.459 183.883,13.181 183.207,13.240 185.233 M14.075 189.800 C 14.065 190.460,14.211 191.360,14.400 191.800 L 14.744 192.600 14.725 191.800 C 14.714 191.360,14.568 190.460,14.400 189.800 L 14.095 188.600 14.075 189.800 M14.868 193.600 C 14.862 194.150,15.011 194.960,15.200 195.400 L 15.544 196.200 15.532 195.400 C 15.526 194.960,15.376 194.150,15.200 193.600 L 14.880 192.600 14.868 193.600 M15.634 197.000 C 15.622 197.440,15.787 198.070,16.000 198.400 C 16.514 199.195,16.514 198.196,16.000 197.000 L 15.656 196.200 15.634 197.000 M16.412 200.000 C 16.412 200.330,16.587 200.870,16.800 201.200 C 17.145 201.733,17.188 201.733,17.188 201.200 C 17.188 200.870,17.013 200.330,16.800 200.000 C 16.455 199.467,16.412 199.467,16.412 200.000 M17.212 202.800 C 17.212 203.130,17.387 203.670,17.600 204.000 C 17.945 204.533,17.988 204.533,17.988 204.000 C 17.988 203.670,17.813 203.130,17.600 202.800 C 17.255 202.267,17.212 202.267,17.212 202.800 M18.012 205.200 C 18.012 205.530,18.187 206.070,18.400 206.400 C 18.745 206.933,18.788 206.933,18.788 206.400 C 18.788 206.070,18.613 205.530,18.400 205.200 C 18.055 204.667,18.012 204.667,18.012 205.200 M22.607 217.079 C 23.207 218.514,23.600 219.162,23.600 218.716 C 23.600 218.284,22.385 215.600,22.189 215.600 C 22.079 215.600,22.267 216.266,22.607 217.079 M24.498 221.100 C 25.876 223.937,26.553 225.181,26.660 225.073 C 26.828 224.905,24.792 220.800,24.541 220.800 C 24.437 220.800,24.418 220.935,24.498 221.100 M27.815 227.400 C 28.397 228.500,29.057 229.580,29.281 229.800 C 29.863 230.372,28.192 227.159,27.409 226.200 C 27.050 225.760,27.232 226.300,27.815 227.400 M29.600 230.606 C 29.600 230.924,32.488 235.200,32.703 235.200 C 32.807 235.200,32.578 234.721,32.194 234.135 C 31.810 233.549,31.141 232.469,30.708 231.735 C 29.976 230.493,29.600 230.111,29.600 230.606 M35.536 239.700 C 37.182 242.083,42.400 248.559,42.400 248.219 C 42.400 248.064,41.357 246.646,40.083 245.069 C 38.808 243.491,37.083 241.255,36.249 240.100 C 34.439 237.595,33.856 237.267,35.536 239.700 M42.800 248.844 C 42.800 249.434,56.794 263.339,57.090 263.043 C 57.221 262.912,56.965 262.489,56.521 262.103 C 52.018 258.185,49.332 255.601,46.338 252.308 C 44.392 250.168,42.800 248.609,42.800 248.844 M340.768 263.330 C 339.152 264.184,337.215 266.548,337.718 267.051 C 337.835 267.169,338.231 266.633,338.598 265.862 C 340.068 262.763,340.054 262.764,363.580 262.890 C 374.989 262.950,384.116 262.868,383.862 262.706 C 383.608 262.544,374.203 262.409,362.963 262.406 L 342.526 262.400 340.768 263.330 M59.200 264.730 C 60.189 265.612,61.076 266.257,61.170 266.163 C 61.350 265.984,60.610 265.349,58.600 263.956 C 57.940 263.499,58.210 263.847,59.200 264.730 M386.134 264.507 C 386.830 265.226,387.477 265.764,387.571 265.703 C 387.799 265.554,385.531 263.200,385.159 263.200 C 384.999 263.200,385.438 263.788,386.134 264.507 M108.900 266.196 C 107.066 266.993,107.283 267.216,109.238 266.542 C 111.402 265.796,113.339 266.195,115.112 267.752 C 116.235 268.738,116.412 268.808,115.965 268.087 C 114.706 266.061,111.305 265.151,108.900 266.196 M190.000 266.000 L 189.000 266.320 190.000 266.320 C 190.550 266.320,191.450 266.176,192.000 266.000 L 193.000 265.680 192.000 265.680 C 191.450 265.680,190.550 265.824,190.000 266.000 M61.600 266.561 C 61.600 266.834,67.051 270.859,69.821 272.631 C 72.912 274.608,72.528 274.009,69.300 271.818 C 67.815 270.810,65.475 269.168,64.100 268.169 C 62.725 267.170,61.600 266.446,61.600 266.561 M185.600 266.800 C 184.628 267.111,184.633 267.120,185.800 267.120 C 186.460 267.120,187.450 266.976,188.000 266.800 C 188.972 266.489,188.967 266.480,187.800 266.480 C 187.140 266.480,186.150 266.624,185.600 266.800 M387.904 327.031 L 388.008 387.606 362.904 387.503 L 337.800 387.400 337.598 328.000 L 337.396 268.600 337.304 327.800 C 337.254 360.360,337.356 387.226,337.532 387.503 C 337.784 387.900,343.151 387.984,363.025 387.903 L 388.200 387.800 388.301 327.667 C 388.357 294.594,388.267 267.291,388.101 266.995 C 387.936 266.699,387.847 293.715,387.904 327.031 M106.179 268.509 C 105.127 270.245,104.713 271.301,105.205 270.997 C 105.422 270.863,105.600 270.566,105.600 270.338 C 105.600 270.110,105.980 269.390,106.444 268.739 C 106.908 268.087,107.213 267.480,107.123 267.389 C 107.032 267.299,106.607 267.803,106.179 268.509 M179.600 267.600 C 178.219 267.891,178.225 267.895,180.000 267.900 C 180.990 267.903,182.340 267.768,183.000 267.600 C 184.683 267.172,181.635 267.172,179.600 267.600 M116.600 271.800 C 116.600 273.188,116.732 274.116,116.894 273.862 C 117.056 273.608,117.188 272.680,117.188 271.800 C 117.188 270.920,117.056 269.992,116.894 269.738 C 116.732 269.484,116.600 270.412,116.600 271.800 M104.015 272.698 C 102.931 275.019,102.397 276.400,102.583 276.400 C 102.854 276.400,104.869 271.935,104.682 271.749 C 104.598 271.665,104.298 272.092,104.015 272.698 M73.011 274.539 C 74.919 275.841,76.000 276.478,76.000 276.299 C 76.000 276.045,72.904 274.000,72.520 274.000 C 72.356 274.000,72.577 274.242,73.011 274.539 M115.472 276.219 C 114.532 278.189,114.664 278.524,115.647 276.662 C 116.093 275.816,116.387 275.054,116.301 274.967 C 116.214 274.881,115.841 275.444,115.472 276.219 M76.800 276.822 C 77.130 277.047,78.120 277.604,79.000 278.059 C 80.969 279.079,80.376 278.394,78.288 277.238 C 76.728 276.374,75.737 276.097,76.800 276.822 M101.472 278.219 C 100.532 280.189,100.664 280.524,101.647 278.662 C 102.093 277.816,102.387 277.054,102.301 276.967 C 102.214 276.881,101.841 277.444,101.472 278.219 M113.412 280.612 C 112.855 281.828,112.407 282.953,112.416 283.112 C 112.436 283.477,113.529 281.468,114.256 279.728 C 115.175 277.527,114.498 278.236,113.412 280.612 M99.072 283.419 C 98.132 285.389,98.264 285.724,99.247 283.862 C 99.693 283.016,99.987 282.254,99.901 282.167 C 99.814 282.081,99.441 282.644,99.072 283.419 M111.633 284.512 C 111.443 285.014,110.833 286.364,110.280 287.511 C 109.177 289.798,109.180 289.807,111.200 290.128 L 112.600 290.350 111.163 289.920 L 109.726 289.490 110.706 287.457 C 111.941 284.898,112.437 283.600,112.180 283.600 C 112.070 283.600,111.824 284.011,111.633 284.512 M112.833 290.547 C 112.925 290.628,113.720 290.804,114.600 290.938 C 115.715 291.107,115.958 291.071,115.400 290.819 C 114.632 290.471,112.490 290.244,112.833 290.547 M116.433 291.346 C 116.525 291.426,117.590 291.600,118.800 291.732 C 120.237 291.888,120.722 291.848,120.200 291.614 C 119.443 291.275,116.079 291.036,116.433 291.346 M121.233 292.148 C 121.325 292.229,122.750 292.396,124.400 292.518 C 126.231 292.653,126.932 292.614,126.200 292.417 C 124.992 292.093,120.923 291.872,121.233 292.148 M174.899 327.076 C 173.480 327.359,171.334 329.653,170.847 331.405 C 170.192 333.766,170.223 387.263,170.880 387.920 C 171.574 388.614,220.826 388.614,221.520 387.920 C 221.884 387.556,222.000 380.758,222.000 359.769 C 222.000 329.040,222.100 330.233,219.336 328.124 L 217.863 327.000 196.832 326.948 C 185.264 326.919,175.394 326.977,174.899 327.076 M218.646 328.225 C 221.619 330.445,221.400 327.968,221.400 359.329 L 221.400 387.400 196.300 387.503 L 171.200 387.606 171.200 359.365 L 171.200 331.123 172.070 329.862 C 172.549 329.168,172.986 328.538,173.041 328.463 C 174.202 326.869,216.535 326.648,218.646 328.225 M305.113 347.700 C 305.065 347.755,304.930 356.800,304.813 367.800 L 304.600 387.800 286.200 388.006 L 267.800 388.212 286.051 388.306 C 300.691 388.381,304.388 388.296,304.737 387.876 C 305.107 387.430,305.665 347.599,305.300 347.600 C 305.245 347.600,305.161 347.645,305.113 347.700 " stroke="none" fill="#4e647e" fill-rule="evenodd"></path></g></svg>