<?xml version="1.0" encoding="UTF-8"?>
<!DOCTYPE svg PUBLIC "-//W3C//DTD SVG 1.1//EN" "http://www.w3.org/Graphics/SVG/1.1/DTD/svg11.dtd">
<svg xmlns="http://www.w3.org/2000/svg" version="1.1" width="278px" height="263px" style="shape-rendering:geometricPrecision; text-rendering:geometricPrecision; image-rendering:optimizeQuality; fill-rule:evenodd; clip-rule:evenodd" xmlns:xlink="http://www.w3.org/1999/xlink">
<g><path style="opacity:1" fill="#fefefe" d="M -0.5,-0.5 C 92.1667,-0.5 184.833,-0.5 277.5,-0.5C 277.5,87.1667 277.5,174.833 277.5,262.5C 184.833,262.5 92.1667,262.5 -0.5,262.5C -0.5,174.833 -0.5,87.1667 -0.5,-0.5 Z"/></g>
<g><path style="opacity:1" fill="#2e4478" d="M 69.5,66.5 C 65.1667,66.5 60.8333,66.5 56.5,66.5C 49.2254,60.5127 46.3921,52.846 48,43.5C 52.8459,33.8324 60.3459,30.9991 70.5,35C 78.4633,40.2859 80.63,47.4526 77,56.5C 75.0526,60.2762 72.5526,63.6096 69.5,66.5 Z"/></g>
<g><path style="opacity:1" fill="#fbfbfc" d="M 58.5,38.5 C 70.4887,37.3227 75.322,42.656 73,54.5C 66.2458,65.0767 59.5792,65.0767 53,54.5C 51.0165,47.6603 52.8498,42.3269 58.5,38.5 Z"/></g>
<g><path style="opacity:1" fill="#c9c9c9" d="M 84.5,53.5 C 101.025,52.513 113.859,58.8464 123,72.5C 124.885,74.9141 125.552,77.5808 125,80.5C 123.413,81.727 122.079,81.3937 121,79.5C 113.594,63.707 101.094,56.5403 83.5,58C 82.2568,56.184 82.5901,54.684 84.5,53.5 Z"/></g>
<g><path style="opacity:1" fill="#2c86bc" d="M 51.5,67.5 C 54.89,67.1149 57.2233,68.4483 58.5,71.5C 54.0143,70.9944 50.181,72.3277 47,75.5C 46.5008,80.1548 46.3342,84.8215 46.5,89.5C 57.5,89.5 68.5,89.5 79.5,89.5C 79.6658,84.8215 79.4992,80.1548 79,75.5C 76.2966,73.0979 73.1299,71.7646 69.5,71.5C 69.5,70.1667 69.5,68.8333 69.5,67.5C 70.8333,67.5 72.1667,67.5 73.5,67.5C 78.2619,67.9628 81.7619,70.2961 84,74.5C 87.831,92.4961 80.6644,99.1627 62.5,94.5C 44.8462,98.6786 38.0129,92.0119 42,74.5C 43.9931,70.5856 47.1597,68.2523 51.5,67.5 Z"/></g>
<g><path style="opacity:1" fill="#209bd3" d="M 51.5,67.5 C 52.9187,66.5489 54.5853,66.2155 56.5,66.5C 60.8333,66.5 65.1667,66.5 69.5,66.5C 71.099,66.2322 72.4324,66.5655 73.5,67.5C 72.1667,67.5 70.8333,67.5 69.5,67.5C 69.5,68.8333 69.5,70.1667 69.5,71.5C 65.8333,71.5 62.1667,71.5 58.5,71.5C 57.2233,68.4483 54.89,67.1149 51.5,67.5 Z"/></g>
<g><path style="opacity:1" fill="#fafcfd" d="M 58.5,71.5 C 62.1667,71.5 65.8333,71.5 69.5,71.5C 73.1299,71.7646 76.2966,73.0979 79,75.5C 79.4992,80.1548 79.6658,84.8215 79.5,89.5C 68.5,89.5 57.5,89.5 46.5,89.5C 46.3342,84.8215 46.5008,80.1548 47,75.5C 50.181,72.3277 54.0143,70.9944 58.5,71.5 Z"/></g>
<g><path style="opacity:1" fill="#2a4176" d="M 124.5,120.5 C 120.265,121.436 115.931,121.769 111.5,121.5C 108.835,118.665 106.335,115.665 104,112.5C 99.9662,102.41 102.466,94.5769 111.5,89C 126.557,86.9299 133.724,93.4299 133,108.5C 131.371,113.45 128.538,117.45 124.5,120.5 Z"/></g>
<g><path style="opacity:1" fill="#f8f9fa" d="M 114.5,92.5 C 126.725,92.8931 130.892,98.8931 127,110.5C 123.364,117.681 118.197,119.181 111.5,115C 104.066,106.205 105.066,98.7055 114.5,92.5 Z"/></g>
<g><path style="opacity:1" fill="#c9c9c9" d="M 56.5,100.5 C 58.0174,100.511 59.1841,101.177 60,102.5C 66.658,117.255 78.158,124.588 94.5,124.5C 95.8333,125.5 95.8333,126.5 94.5,127.5C 75.4123,129.415 62.4123,121.415 55.5,103.5C 55.685,102.416 56.0183,101.416 56.5,100.5 Z"/></g>
<g><path style="opacity:1" fill="#277bc1" d="M 111.5,121.5 C 111.366,123.292 111.699,124.958 112.5,126.5C 108.197,125.796 104.697,127.13 102,130.5C 101.201,135.087 101.368,139.587 102.5,144C 112.828,144.5 123.161,144.666 133.5,144.5C 133.666,139.489 133.499,134.489 133,129.5C 130.508,127.503 127.675,126.503 124.5,126.5C 124.5,124.833 124.5,123.167 124.5,121.5C 129.262,121.698 133.428,123.365 137,126.5C 138.581,132.723 138.915,139.056 138,145.5C 137.348,147.723 135.848,148.89 133.5,149C 122.833,149.667 112.167,149.667 101.5,149C 99.714,148.215 98.214,147.049 97,145.5C 92.0491,131.156 96.8825,123.156 111.5,121.5 Z"/></g>
<g><path style="opacity:1" fill="#215e98" d="M 124.5,120.5 C 124.5,120.833 124.5,121.167 124.5,121.5C 124.5,123.167 124.5,124.833 124.5,126.5C 120.5,126.5 116.5,126.5 112.5,126.5C 111.699,124.958 111.366,123.292 111.5,121.5C 115.931,121.769 120.265,121.436 124.5,120.5 Z"/></g>
<g><path style="opacity:1" fill="#fafcfd" d="M 112.5,126.5 C 116.5,126.5 120.5,126.5 124.5,126.5C 127.675,126.503 130.508,127.503 133,129.5C 133.499,134.489 133.666,139.489 133.5,144.5C 123.161,144.666 112.828,144.5 102.5,144C 101.368,139.587 101.201,135.087 102,130.5C 104.697,127.13 108.197,125.796 112.5,126.5 Z"/></g>
<g><path style="opacity:1" fill="#2ea8df" d="M 92.5,151.5 C 108.837,151.333 125.17,151.5 141.5,152C 145.5,154.667 145.5,157.333 141.5,160C 124.833,160.667 108.167,160.667 91.5,160C 88.6655,156.695 88.9988,153.862 92.5,151.5 Z"/></g>
<g><path style="opacity:1" fill="#157db6" d="M 91.5,167.5 C 108.503,167.333 125.503,167.5 142.5,168C 145.167,170.333 145.167,172.667 142.5,175C 125.5,175.667 108.5,175.667 91.5,175C 88.9142,172.506 88.9142,170.006 91.5,167.5 Z"/></g>
<g><path style="opacity:1" fill="#4687c0" d="M 167.5,177.5 C 170.187,177.336 172.854,177.503 175.5,178C 173.527,178.495 171.527,178.662 169.5,178.5C 169.5,180.167 169.5,181.833 169.5,183.5C 177.5,183.833 177.5,184.167 169.5,184.5C 169.5,186.167 169.5,187.833 169.5,189.5C 171.527,189.338 173.527,189.505 175.5,190C 172.854,190.497 170.187,190.664 167.5,190.5C 167.5,186.167 167.5,181.833 167.5,177.5 Z"/></g>
<g><path style="opacity:1" fill="#5490c4" d="M 181.5,181.5 C 183.518,182.623 185.518,182.623 187.5,181.5C 190.557,183.85 191.224,186.85 189.5,190.5C 188.526,188.257 188.192,185.924 188.5,183.5C 187.5,183.5 186.5,183.5 185.5,183.5C 184.833,192.833 184.167,192.833 183.5,183.5C 182.178,183.33 181.011,183.663 180,184.5C 179.667,186.5 179.333,188.5 179,190.5C 178.503,187.854 178.336,185.187 178.5,182.5C 179.791,182.737 180.791,182.404 181.5,181.5 Z"/></g>
<g><path style="opacity:1" fill="#22598f" d="M 91.5,182.5 C 108.503,182.333 125.503,182.5 142.5,183C 144.648,185.075 144.982,187.408 143.5,190C 126.167,190.667 108.833,190.667 91.5,190C 88.9142,187.506 88.9142,185.006 91.5,182.5 Z"/></g>
<g><path style="opacity:1" fill="#4e8cc1" d="M 229.5,181.5 C 233.192,181.324 235.192,182.991 235.5,186.5C 233.076,186.192 230.743,186.526 228.5,187.5C 228.887,188.72 229.72,189.387 231,189.5C 232.162,188.813 233.328,188.647 234.5,189C 230.726,191.483 228.06,190.649 226.5,186.5C 227.092,184.577 228.092,182.911 229.5,181.5 Z"/></g>
<g><path style="opacity:1" fill="#fafdf8" d="M 229.5,183.5 C 231.103,183.312 232.437,183.812 233.5,185C 231.833,185.667 230.167,185.667 228.5,185C 229.056,184.617 229.389,184.117 229.5,183.5 Z"/></g>
<g><path style="opacity:1" fill="#4a8dc0" d="M 240.5,181.5 C 243.833,181.5 245.5,183.167 245.5,186.5C 243.396,186.201 241.396,186.534 239.5,187.5C 239.833,188.5 240.5,189.167 241.5,189.5C 242.768,188.572 244.101,188.405 245.5,189C 241.408,191.588 238.741,190.588 237.5,186C 237.557,183.791 238.557,182.291 240.5,181.5 Z"/></g>
<g><path style="opacity:1" fill="#f3f0f1" d="M 239.5,183.5 C 241.429,183.231 243.095,183.731 244.5,185C 243.667,185.167 242.833,185.333 242,185.5C 240.624,185.316 239.791,184.649 239.5,183.5 Z"/></g>
<g><path style="opacity:1" fill="#5a93c4" d="M 160.5,181.5 C 162.484,181.383 164.15,182.05 165.5,183.5C 163.979,183.88 162.313,184.046 160.5,184C 162.381,185.102 164.048,186.435 165.5,188C 165.138,189.885 163.971,190.719 162,190.5C 161.167,190.167 160.333,189.833 159.5,189.5C 160.066,188.709 160.899,188.709 162,189.5C 163.645,187.265 162.812,186.265 159.5,186.5C 159.366,184.708 159.699,183.042 160.5,181.5 Z"/></g>
<g><path style="opacity:1" fill="#4f8cc3" d="M 218.5,182.5 C 219.885,183.574 221.051,184.907 222,186.5C 222.923,185.241 223.757,183.908 224.5,182.5C 224.833,182.833 225.167,183.167 225.5,183.5C 223.685,187.623 221.685,191.623 219.5,195.5C 219.167,195.167 218.833,194.833 218.5,194.5C 221.036,190.507 221.036,186.507 218.5,182.5 Z"/></g>
<g><path style="opacity:1" fill="#5d8ec2" d="M 210.5,181.5 C 216.651,182.103 217.984,184.936 214.5,190C 207,190.196 205.667,187.363 210.5,181.5 Z"/></g>
<g><path style="opacity:1" fill="#f6f9f6" d="M 210.5,183.5 C 214.35,183.701 215.35,185.534 213.5,189C 209.537,189.118 208.537,187.284 210.5,183.5 Z"/></g>
<g><path style="opacity:1" fill="#3887c0" d="M 196.5,181.5 C 201.79,182.767 202.79,185.6 199.5,190C 197.888,190.72 196.388,190.554 195,189.5C 194.667,191.5 194.333,193.5 194,195.5C 193.501,191.179 193.334,186.846 193.5,182.5C 194.791,182.737 195.791,182.404 196.5,181.5 Z"/></g>
<g><path style="opacity:1" fill="#edf0f1" d="M 195.5,183.5 C 201.175,183.86 201.842,185.86 197.5,189.5C 194.531,188.235 193.865,186.235 195.5,183.5 Z"/></g>
<g><path style="opacity:1" fill="#2e3c70" d="M 104.5,197.5 C 112.84,197.334 121.173,197.5 129.5,198C 131.396,199.808 131.896,201.975 131,204.5C 122.226,205.816 113.393,205.816 104.5,204.5C 103.328,202.177 103.328,199.844 104.5,197.5 Z"/></g>
</svg>
