<?xml version="1.0" encoding="UTF-8"?>
<!DOCTYPE svg PUBLIC "-//W3C//DTD SVG 1.1//EN" "http://www.w3.org/Graphics/SVG/1.1/DTD/svg11.dtd">
<svg xmlns="http://www.w3.org/2000/svg" version="1.1" width="247px" height="282px" style="shape-rendering:geometricPrecision; text-rendering:geometricPrecision; image-rendering:optimizeQuality; fill-rule:evenodd; clip-rule:evenodd" xmlns:xlink="http://www.w3.org/1999/xlink">
<g><path style="opacity:1" fill="#fefefe" d="M -0.5,-0.5 C 81.8333,-0.5 164.167,-0.5 246.5,-0.5C 246.5,93.5 246.5,187.5 246.5,281.5C 164.167,281.5 81.8333,281.5 -0.5,281.5C -0.5,187.5 -0.5,93.5 -0.5,-0.5 Z"/></g>
<g><path style="opacity:1" fill="#1b80b9" d="M 118.5,115.5 C 118.5,112.833 118.5,110.167 118.5,107.5C 115.5,107.5 112.5,107.5 109.5,107.5C 106.167,107.5 102.833,107.5 99.5,107.5C 99.5,114.5 99.5,121.5 99.5,128.5C 100.822,128.33 101.989,128.663 103,129.5C 103.497,132.146 103.664,134.813 103.5,137.5C 102.167,137.5 100.833,137.5 99.5,137.5C 99.5,141.833 99.5,146.167 99.5,150.5C 105.905,149.406 108.238,152.073 106.5,158.5C 74.1631,162.324 52.3298,148.991 41,118.5C 35.5012,85.3286 48.3345,62.4952 79.5,50C 111.382,43.857 134.215,55.357 148,84.5C 152.817,98.2614 152.484,111.928 147,125.5C 143.797,126.826 140.964,126.159 138.5,123.5C 140.245,118.6 141.578,113.6 142.5,108.5C 137.167,108.5 131.833,108.5 126.5,108.5C 128.709,117.753 126.042,120.087 118.5,115.5 Z"/></g>
<g><path style="opacity:1" fill="#fbfcfd" d="M 84.5,57.5 C 86.5,57.5 88.5,57.5 90.5,57.5C 90.5,60.8333 90.5,64.1667 90.5,67.5C 87.1667,67.5 83.8333,67.5 80.5,67.5C 81.2759,63.9475 82.6092,60.6142 84.5,57.5 Z"/></g>
<g><path style="opacity:1" fill="#fbfcfd" d="M 99.5,57.5 C 101.527,57.3379 103.527,57.5045 105.5,58C 107.54,60.781 109.207,63.781 110.5,67C 106.848,67.4986 103.182,67.6653 99.5,67.5C 99.5,64.1667 99.5,60.8333 99.5,57.5 Z"/></g>
<g><path style="opacity:1" fill="#edf4f9" d="M 69.5,63.5 C 71.7583,63.7751 72.0916,64.7751 70.5,66.5C 68.9255,67.6309 67.2588,67.7975 65.5,67C 67.0931,66.0513 68.4264,64.8846 69.5,63.5 Z"/></g>
<g><path style="opacity:1" fill="#e8f2f8" d="M 117.5,62.5 C 120.116,63.4798 122.449,64.9798 124.5,67C 120.202,68.5119 117.869,67.0119 117.5,62.5 Z"/></g>
<g><path style="opacity:1" fill="#86bdda" d="M 56.5,76.5 C 59.9619,75.5184 63.6286,75.185 67.5,75.5C 67.7373,76.791 67.404,77.791 66.5,78.5C 63.6627,76.5977 60.3293,75.931 56.5,76.5 Z"/></g>
<g><path style="opacity:1" fill="#fafcfd" d="M 56.5,76.5 C 60.3293,75.931 63.6627,76.5977 66.5,78.5C 64.6352,85.0235 63.6352,91.6901 63.5,98.5C 58.5,98.5 53.5,98.5 48.5,98.5C 48.9919,90.3562 51.6586,83.0228 56.5,76.5 Z"/></g>
<g><path style="opacity:1" fill="#fcfdfe" d="M 76.5,76.5 C 81.1667,76.5 85.8333,76.5 90.5,76.5C 90.5,83.8333 90.5,91.1667 90.5,98.5C 84.1318,98.8297 77.7985,98.4963 71.5,97.5C 72.9681,90.4341 74.6347,83.4341 76.5,76.5 Z"/></g>
<g><path style="opacity:1" fill="#5ca6ce" d="M 76.5,76.5 C 81.3054,75.5128 86.3054,75.1795 91.5,75.5C 91.8254,83.3516 91.492,91.0182 90.5,98.5C 90.5,91.1667 90.5,83.8333 90.5,76.5C 85.8333,76.5 81.1667,76.5 76.5,76.5 Z"/></g>
<g><path style="opacity:1" fill="#5ca5ce" d="M 113.5,76.5 C 108.833,76.5 104.167,76.5 99.5,76.5C 99.5,83.8333 99.5,91.1667 99.5,98.5C 98.508,91.0182 98.1746,83.3516 98.5,75.5C 103.695,75.1795 108.695,75.5128 113.5,76.5 Z"/></g>
<g><path style="opacity:1" fill="#fcfdfe" d="M 113.5,76.5 C 115.784,83.6419 117.118,90.9752 117.5,98.5C 111.5,98.5 105.5,98.5 99.5,98.5C 99.5,91.1667 99.5,83.8333 99.5,76.5C 104.167,76.5 108.833,76.5 113.5,76.5 Z"/></g>
<g><path style="opacity:1" fill="#fafcfd" d="M 122.5,76.5 C 126.555,76.1758 130.555,76.5091 134.5,77.5C 139.127,83.7534 141.793,90.7534 142.5,98.5C 137.125,98.8282 131.792,98.4948 126.5,97.5C 125.886,90.3647 124.553,83.3647 122.5,76.5 Z"/></g>
<g><path style="opacity:1" fill="#83bcda" d="M 109.5,107.5 C 112.5,107.5 115.5,107.5 118.5,107.5C 118.5,110.167 118.5,112.833 118.5,115.5C 117.532,113.393 117.198,111.059 117.5,108.5C 114.615,108.806 111.948,108.473 109.5,107.5 Z"/></g>
<g><path style="opacity:1" fill="#f7fbfc" d="M 48.5,107.5 C 53.1667,107.5 57.8333,107.5 62.5,107.5C 62.874,114.532 63.5407,121.532 64.5,128.5C 60.8936,128.789 57.3936,128.456 54,127.5C 50.6319,121.233 48.7986,114.566 48.5,107.5 Z"/></g>
<g><path style="opacity:1" fill="#fafcfd" d="M 71.5,107.5 C 77.8333,107.5 84.1667,107.5 90.5,107.5C 90.5,114.5 90.5,121.5 90.5,128.5C 84.8333,128.5 79.1667,128.5 73.5,128.5C 72.0073,121.589 71.3407,114.589 71.5,107.5 Z"/></g>
<g><path style="opacity:1" fill="#177fb8" d="M 112.5,163.5 C 111.609,164.11 110.609,164.443 109.5,164.5C 109.672,163.508 109.338,162.842 108.5,162.5C 107.093,146.098 105.093,129.765 102.5,113.5C 102.833,112.5 103.167,111.5 103.5,110.5C 119.843,117.836 136.177,125.169 152.5,132.5C 148.206,135.989 143.873,139.489 139.5,143C 145.36,150.694 151.027,158.527 156.5,166.5C 152.341,170.49 148.007,174.324 143.5,178C 142.167,178.667 140.833,178.667 139.5,178C 134,170.5 128.5,163 123,155.5C 119.624,158.383 116.124,161.049 112.5,163.5 Z"/></g>
<g><path style="opacity:1" fill="#ebf4f9" d="M 62.5,138.5 C 67.2988,136.451 69.4655,138.117 69,143.5C 66.7131,141.946 64.5465,140.279 62.5,138.5 Z"/></g>
<g><path style="opacity:1" fill="#fbfdfd" d="M 77.5,137.5 C 81.8333,137.5 86.1667,137.5 90.5,137.5C 90.5,141.833 90.5,146.167 90.5,150.5C 88.076,150.808 85.7427,150.474 83.5,149.5C 80.9617,145.757 78.9617,141.757 77.5,137.5 Z"/></g>
<g><path style="opacity:1" fill="#a2dff5" d="M 108.5,162.5 C 109.338,162.842 109.672,163.508 109.5,164.5C 97.011,165.495 84.3443,165.829 71.5,165.5C 84.0338,165.16 96.3672,164.16 108.5,162.5 Z"/></g>
<g><path style="opacity:1" fill="#37b6e8" d="M 112.5,163.5 C 115.305,164.319 118.305,164.819 121.5,165C 122.056,165.383 122.389,165.883 122.5,166.5C 105.167,166.5 87.8333,166.5 70.5,166.5C 70.5,165.833 70.8333,165.5 71.5,165.5C 84.3443,165.829 97.011,165.495 109.5,164.5C 110.609,164.443 111.609,164.11 112.5,163.5 Z"/></g>
<g><path style="opacity:1" fill="#13a2dc" d="M 70.5,166.5 C 87.8333,166.5 105.167,166.5 122.5,166.5C 123.811,168.56 123.811,170.726 122.5,173C 105.167,173.667 87.8333,173.667 70.5,173C 69.1888,170.726 69.1888,168.56 70.5,166.5 Z"/></g>
<g><path style="opacity:1" fill="#2a83b9" d="M 71.5,180.5 C 88.17,180.333 104.837,180.5 121.5,181C 124.306,182.305 125.14,184.472 124,187.5C 123.25,188.126 122.416,188.626 121.5,189C 104.833,189.667 88.1667,189.667 71.5,189C 68.8752,186.118 68.8752,183.285 71.5,180.5 Z"/></g>
<g><path style="opacity:1" fill="#1680c5" d="M 146.5,190.5 C 146.5,194.5 146.5,198.5 146.5,202.5C 148.167,202.5 149.833,202.5 151.5,202.5C 149.735,203.461 147.735,203.795 145.5,203.5C 145.182,198.968 145.515,194.634 146.5,190.5 Z"/></g>
<g><path style="opacity:1" fill="#c7f5f7" d="M 146.5,190.5 C 145.515,194.634 145.182,198.968 145.5,203.5C 147.735,203.795 149.735,203.461 151.5,202.5C 149.833,202.5 148.167,202.5 146.5,202.5C 146.5,198.5 146.5,194.5 146.5,190.5 Z"/></g>
<g><path style="opacity:1" fill="#82c5e9" d="M 133.5,195.5 C 134.748,196.334 135.415,197.667 135.5,199.5C 135.167,200.833 134.833,202.167 134.5,203.5C 133.52,200.914 133.187,198.247 133.5,195.5 Z"/></g>
<g><path style="opacity:1" fill="#5ea9db" d="M 173.5,195.5 C 174.748,196.334 175.415,197.667 175.5,199.5C 175.167,200.833 174.833,202.167 174.5,203.5C 173.52,200.914 173.187,198.247 173.5,195.5 Z"/></g>
<g><path style="opacity:1" fill="#5d9bcc" d="M 186.5,191.5 C 188.057,192.466 189.39,193.8 190.5,195.5C 189.078,197.965 188.078,200.631 187.5,203.5C 186.996,200.701 185.996,198.201 184.5,196C 186.107,194.951 186.773,193.451 186.5,191.5 Z"/></g>
<g><path style="opacity:1" fill="#5ea9db" d="M 191.5,195.5 C 192.748,196.334 193.415,197.667 193.5,199.5C 193.167,200.833 192.833,202.167 192.5,203.5C 191.52,200.914 191.187,198.247 191.5,195.5 Z"/></g>
<g><path style="opacity:1" fill="#478bc1" d="M 196.5,195.5 C 198.527,195.338 200.527,195.505 202.5,196C 203.711,196.893 203.711,197.726 202.5,198.5C 200.116,195.773 198.116,195.94 196.5,199C 197.765,202.809 199.765,203.309 202.5,200.5C 202.833,200.833 203.167,201.167 203.5,201.5C 199.49,204.667 196.823,203.834 195.5,199C 195.648,197.744 195.982,196.577 196.5,195.5 Z"/></g>
<g><path style="opacity:1" fill="#396d9f" d="M 123.5,202.5 C 123.744,198.051 121.578,196.385 117,197.5C 101.315,200.699 85.8154,201.032 70.5,198.5C 70.5,199.833 70.5,201.167 70.5,202.5C 69.0584,200.183 69.3918,198.016 71.5,196C 88.1667,195.333 104.833,195.333 121.5,196C 124.5,197.525 125.167,199.692 123.5,202.5 Z"/></g>
<g><path style="opacity:1" fill="#2b598e" d="M 123.5,202.5 C 123.389,203.117 123.056,203.617 122.5,204C 105.5,204.667 88.5,204.667 71.5,204C 70.944,203.617 70.6107,203.117 70.5,202.5C 70.5,201.167 70.5,199.833 70.5,198.5C 85.8154,201.032 101.315,200.699 117,197.5C 121.578,196.385 123.744,198.051 123.5,202.5 Z"/></g>
<g><path style="opacity:1" fill="#5794c5" d="M 179.5,194.5 C 181.09,194.628 182.423,195.295 183.5,196.5C 182.167,196.833 180.833,197.167 179.5,197.5C 182.824,198.159 184.157,200.159 183.5,203.5C 181.25,203.819 179.25,203.319 177.5,202C 183.929,202.507 184.096,201.34 178,198.5C 177.516,196.807 178.016,195.473 179.5,194.5 Z"/></g>
<g><path style="opacity:1" fill="#548fc3" d="M 138.5,194.5 C 140.681,194.284 142.347,195.117 143.5,197C 141.775,196.591 140.108,196.758 138.5,197.5C 139.736,198.357 141.069,199.023 142.5,199.5C 143.731,200.651 143.731,201.817 142.5,203C 140.272,203.82 138.272,203.487 136.5,202C 138.225,202.409 139.892,202.242 141.5,201.5C 139.833,200.167 138.167,198.833 136.5,197.5C 137.193,196.482 137.859,195.482 138.5,194.5 Z"/></g>
<g><path style="opacity:1" fill="#4187bf" d="M 155.5,194.5 C 160.012,194.869 161.512,197.202 160,201.5C 156.464,204.492 153.964,203.825 152.5,199.5C 152.323,197.032 153.323,195.365 155.5,194.5 Z"/></g>
<g><path style="opacity:1" fill="#f1f3f3" d="M 154.5,196.5 C 160.175,196.86 160.842,198.86 156.5,202.5C 153.531,201.235 152.865,199.235 154.5,196.5 Z"/></g>
<g><path style="opacity:1" fill="#5294c7" d="M 165.5,194.5 C 167.435,195.15 169.435,195.483 171.5,195.5C 171.665,198.85 171.498,202.183 171,205.5C 168.073,209.452 165.239,209.452 162.5,205.5C 162.667,205.167 162.833,204.833 163,204.5C 165.536,207.313 167.703,207.146 169.5,204C 169.333,203.5 169.167,203 169,202.5C 163.812,203.98 161.812,201.98 163,196.5C 163.995,195.934 164.828,195.267 165.5,194.5 Z"/></g>
<g><path style="opacity:1" fill="#edeff2" d="M 164.5,196.5 C 168.909,195.899 170.242,197.566 168.5,201.5C 164.317,202.309 162.984,200.642 164.5,196.5 Z"/></g>
<g><path style="opacity:1" fill="#2e3c70" d="M 84.5,211.5 C 92.84,211.334 101.173,211.5 109.5,212C 112.167,214.333 112.167,216.667 109.5,219C 101.5,219.667 93.5,219.667 85.5,219C 84.9558,218.283 84.2891,217.783 83.5,217.5C 83.5172,215.435 83.8505,213.435 84.5,211.5 Z"/></g>
<g><path style="opacity:1" fill="#818cac" d="M 84.5,211.5 C 83.8505,213.435 83.5172,215.435 83.5,217.5C 82.8614,216.903 82.528,216.07 82.5,215C 82.3866,213.301 83.0532,212.134 84.5,211.5 Z"/></g>
</svg>
