<?xml version="1.0" encoding="UTF-8"?>
<!DOCTYPE svg PUBLIC "-//W3C//DTD SVG 1.1//EN" "http://www.w3.org/Graphics/SVG/1.1/DTD/svg11.dtd">
<svg xmlns="http://www.w3.org/2000/svg" version="1.1" width="283px" height="258px" style="shape-rendering:geometricPrecision; text-rendering:geometricPrecision; image-rendering:optimizeQuality; fill-rule:evenodd; clip-rule:evenodd" xmlns:xlink="http://www.w3.org/1999/xlink">
<g><path style="opacity:1" fill="#fefefe" d="M -0.5,-0.5 C 93.8333,-0.5 188.167,-0.5 282.5,-0.5C 282.5,85.5 282.5,171.5 282.5,257.5C 188.167,257.5 93.8333,257.5 -0.5,257.5C -0.5,171.5 -0.5,85.5 -0.5,-0.5 Z"/></g>
<g><path style="opacity:1" fill="#2d8abf" d="M 154.5,114.5 C 153.89,112.566 152.89,110.899 151.5,109.5C 151.5,108.167 151.5,106.833 151.5,105.5C 148.663,103.739 146.33,104.239 144.5,107C 142.833,107.667 141.167,107.667 139.5,107C 136.694,104.194 133.86,101.36 131,98.5C 130.333,96.8333 130.333,95.1667 131,93.5C 134.685,89.0271 133.518,86.5271 127.5,86C 126.667,85.1667 125.833,84.3333 125,83.5C 124.767,79.4155 124.267,75.4155 123.5,71.5C 124.878,70.4549 125.878,69.1216 126.5,67.5C 130.388,68.0113 132.721,66.3447 133.5,62.5C 130.848,60.4083 130.014,57.7417 131,54.5C 133.833,51.6667 136.667,48.8333 139.5,46C 140.833,45.3333 142.167,45.3333 143.5,46C 145.692,48.7862 148.359,49.2862 151.5,47.5C 151.402,41.1045 154.569,38.4379 161,39.5C 166.871,38.3869 170.204,40.7202 171,46.5C 172.194,47.4303 173.527,48.0969 175,48.5C 176.72,47.277 178.553,46.277 180.5,45.5C 187.888,48.0162 191.388,53.0162 191,60.5C 190.13,61.1079 189.63,61.9412 189.5,63C 190.148,64.4397 190.481,65.9397 190.5,67.5C 196.65,67.3192 199.316,70.3192 198.5,76.5C 198.333,78.5 198.167,80.5 198,82.5C 195.254,85.0992 192.421,87.4326 189.5,89.5C 191.346,92.5831 191.846,95.9165 191,99.5C 188.5,102 186,104.5 183.5,107C 179.686,106.804 176.019,106.138 172.5,105C 171.266,107.924 169.599,110.591 167.5,113C 163.083,113.228 158.75,113.728 154.5,114.5 Z"/></g>
<g><path style="opacity:1" fill="#f6fafc" d="M 157.5,45.5 C 160.167,45.5 162.833,45.5 165.5,45.5C 165.5,47.5 165.5,49.5 165.5,51.5C 169.349,51.9493 172.849,53.2826 176,55.5C 177.656,54.2347 179.323,52.9013 181,51.5C 182.833,53.3333 184.667,55.1667 186.5,57C 184.981,58.3513 183.648,59.8513 182.5,61.5C 185.02,64.7267 186.354,68.3934 186.5,72.5C 188.5,72.5 190.5,72.5 192.5,72.5C 192.5,75.1667 192.5,77.8333 192.5,80.5C 190.5,80.5 188.5,80.5 186.5,80.5C 185.965,84.4372 184.632,88.1039 182.5,91.5C 186.701,95.6038 186.035,98.9371 180.5,101.5C 178.833,100.5 177.5,99.1667 176.5,97.5C 173.111,99.6992 169.444,101.032 165.5,101.5C 165.5,103.833 165.5,106.167 165.5,108.5C 162.833,108.5 160.167,108.5 157.5,108.5C 157.5,106.167 157.5,103.833 157.5,101.5C 153.284,101.534 149.617,100.201 146.5,97.5C 145.019,98.4803 143.685,99.647 142.5,101C 139.699,100.552 137.699,98.8851 136.5,96C 137.57,94.2908 138.903,92.7908 140.5,91.5C 137.752,88.3393 136.419,84.6726 136.5,80.5C 134.167,80.5 131.833,80.5 129.5,80.5C 129.5,77.8333 129.5,75.1667 129.5,72.5C 131.792,72.7564 133.959,72.4231 136,71.5C 136.743,68.18 137.91,65.0133 139.5,62C 135.074,56.9469 136.074,53.6136 142.5,52C 143.685,53.353 145.019,54.5197 146.5,55.5C 149.727,52.9798 153.393,51.6464 157.5,51.5C 157.5,49.5 157.5,47.5 157.5,45.5 Z"/></g>
<g><path style="opacity:1" fill="#b8c9da" d="M 114.5,54.5 C 108.773,54.2598 103.106,54.5931 97.5,55.5C 97.6107,54.8826 97.944,54.3826 98.5,54C 104.016,53.1826 109.35,53.3493 114.5,54.5 Z"/></g>
<g><path style="opacity:1" fill="#2f5f92" d="M 114.5,54.5 C 117.763,56.8804 119.263,60.2137 119,64.5C 121.597,65.2735 124.097,66.2735 126.5,67.5C 125.878,69.1216 124.878,70.4549 123.5,71.5C 120.45,70.7054 117.45,69.7054 114.5,68.5C 113.516,65.5719 113.183,62.5719 113.5,59.5C 109.167,59.5 104.833,59.5 100.5,59.5C 100.5,62.5 100.5,65.5 100.5,68.5C 95.3377,69.1621 90.5044,70.8288 86,73.5C 84.1796,72.3961 82.6796,70.8961 81.5,69C 80.5,68.3333 79.5,68.3333 78.5,69C 76.3333,71.1667 74.1667,73.3333 72,75.5C 71.613,79.165 73.113,81.9984 76.5,84C 74.2798,88.0074 72.2798,92.1741 70.5,96.5C 67.9135,97.48 65.2469,97.8134 62.5,97.5C 62.5,102.167 62.5,106.833 62.5,111.5C 65.5,111.5 68.5,111.5 71.5,111.5C 72.4203,115.93 73.7536,120.263 75.5,124.5C 74.9524,126.556 73.7858,128.223 72,129.5C 72.5704,134.444 75.2371,138.11 80,140.5C 81.6992,138.467 83.6992,136.8 86,135.5C 90.6239,137.874 95.4573,139.541 100.5,140.5C 100.5,143.5 100.5,146.5 100.5,149.5C 104.514,149.666 108.514,149.499 112.5,149C 113.167,146 113.833,143 114.5,140C 118.884,139.094 123.051,137.594 127,135.5C 129.112,136.608 130.946,138.108 132.5,140C 136.461,138.23 139.794,135.396 142.5,131.5C 140.628,129.465 138.961,127.298 137.5,125C 139.669,120.657 141.336,116.157 142.5,111.5C 145.187,111.664 147.854,111.497 150.5,111C 151.056,110.617 151.389,110.117 151.5,109.5C 152.89,110.899 153.89,112.566 154.5,114.5C 152.22,116.223 149.553,116.889 146.5,116.5C 146.134,118.905 145.467,121.238 144.5,123.5C 148.217,128.026 148.384,132.693 145,137.5C 142.463,140.372 139.63,142.872 136.5,145C 134.5,145.667 132.5,145.667 130.5,145C 129.315,143.647 127.981,142.48 126.5,141.5C 124.021,143.076 121.354,144.076 118.5,144.5C 119.001,152.943 115.001,156.276 106.5,154.5C 98.5308,155.861 94.5308,152.527 94.5,144.5C 91.8205,144.327 89.4872,143.327 87.5,141.5C 84.5623,144.969 80.8956,146.136 76.5,145C 71.8547,141.199 68.188,136.699 65.5,131.5C 66.2074,128.636 67.5408,126.136 69.5,124C 68.8853,121.485 67.8853,119.152 66.5,117C 58.4045,116.515 55.0712,112.182 56.5,104C 55.5569,96.4408 58.8902,92.2741 66.5,91.5C 67.0521,89.6666 67.8855,87.9999 69,86.5C 69.6667,85.5 69.6667,84.5 69,83.5C 65.4637,80.6948 64.797,77.3615 67,73.5C 70.1667,70.3333 73.3333,67.1667 76.5,64C 80.8956,62.864 84.5623,64.0306 87.5,67.5C 89.2895,66.1228 91.2895,65.1228 93.5,64.5C 93.8977,60.9958 95.2311,57.9958 97.5,55.5C 103.106,54.5931 108.773,54.2598 114.5,54.5 Z"/></g>
<g><path style="opacity:1" fill="#f7f9fb" d="M 123.5,71.5 C 124.267,75.4155 124.767,79.4155 125,83.5C 125.833,84.3333 126.667,85.1667 127.5,86C 133.518,86.5271 134.685,89.0271 131,93.5C 130.333,95.1667 130.333,96.8333 131,98.5C 133.86,101.36 136.694,104.194 139.5,107C 141.167,107.667 142.833,107.667 144.5,107C 146.33,104.239 148.663,103.739 151.5,105.5C 151.5,106.833 151.5,108.167 151.5,109.5C 151.389,110.117 151.056,110.617 150.5,111C 147.854,111.497 145.187,111.664 142.5,111.5C 141.336,116.157 139.669,120.657 137.5,125C 138.961,127.298 140.628,129.465 142.5,131.5C 139.794,135.396 136.461,138.23 132.5,140C 130.946,138.108 129.112,136.608 127,135.5C 123.051,137.594 118.884,139.094 114.5,140C 113.833,143 113.167,146 112.5,149C 108.514,149.499 104.514,149.666 100.5,149.5C 100.5,146.5 100.5,143.5 100.5,140.5C 95.4573,139.541 90.6239,137.874 86,135.5C 83.6992,136.8 81.6992,138.467 80,140.5C 75.2371,138.11 72.5704,134.444 72,129.5C 73.7858,128.223 74.9524,126.556 75.5,124.5C 73.7536,120.263 72.4203,115.93 71.5,111.5C 68.5,111.5 65.5,111.5 62.5,111.5C 62.5,106.833 62.5,102.167 62.5,97.5C 65.2469,97.8134 67.9135,97.48 70.5,96.5C 72.2798,92.1741 74.2798,88.0074 76.5,84C 73.113,81.9984 71.613,79.165 72,75.5C 74.1667,73.3333 76.3333,71.1667 78.5,69C 79.5,68.3333 80.5,68.3333 81.5,69C 82.6796,70.8961 84.1796,72.3961 86,73.5C 90.5044,70.8288 95.3377,69.1621 100.5,68.5C 100.5,65.5 100.5,62.5 100.5,59.5C 104.833,59.5 109.167,59.5 113.5,59.5C 113.183,62.5719 113.516,65.5719 114.5,68.5C 117.45,69.7054 120.45,70.7054 123.5,71.5 Z"/></g>
<g><path style="opacity:1" fill="#2c88be" d="M 154.5,60.5 C 171.541,58.3751 179.041,65.7084 177,82.5C 172.056,91.788 164.556,94.9547 154.5,92C 141.221,81.5029 141.221,71.0029 154.5,60.5 Z"/></g>
<g><path style="opacity:1" fill="#f7fbfc" d="M 157.5,65.5 C 167.877,64.7125 172.71,69.3791 172,79.5C 169.065,86.3776 163.898,88.8776 156.5,87C 148.192,79.3131 148.525,72.1464 157.5,65.5 Z"/></g>
<g><path style="opacity:1" fill="#5b6c96" d="M 111.5,83.5 C 106.384,83.431 101.384,84.0976 96.5,85.5C 101.224,82.5285 106.224,81.8618 111.5,83.5 Z"/></g>
<g><path style="opacity:1" fill="#32477b" d="M 111.5,83.5 C 127.993,89.4637 132.493,100.464 125,116.5C 116.492,126.787 106.325,128.953 94.5,123C 84.7728,113.921 82.9395,103.421 89,91.5C 91.1057,88.8823 93.6057,86.8823 96.5,85.5C 101.384,84.0976 106.384,83.431 111.5,83.5 Z"/></g>
<g><path style="opacity:1" fill="#8794b2" d="M 109.5,88.5 C 105.681,88.414 102.015,89.0807 98.5,90.5C 99.0577,89.2101 100.058,88.3768 101.5,88C 104.367,87.1993 107.034,87.3659 109.5,88.5 Z"/></g>
<g><path style="opacity:1" fill="#f9fafb" d="M 109.5,88.5 C 117.615,90.2814 122.281,95.2814 123.5,103.5C 120.956,117.779 112.623,122.946 98.5,119C 89.8086,111.783 88.3086,103.283 94,93.5C 95.129,91.8588 96.629,90.8588 98.5,90.5C 102.015,89.0807 105.681,88.414 109.5,88.5 Z"/></g>
<g><path style="opacity:1" fill="#2ea8df" d="M 79.5,157.5 C 96.17,157.333 112.837,157.5 129.5,158C 132.167,160.667 132.167,163.333 129.5,166C 112.833,166.667 96.1667,166.667 79.5,166C 76.8987,163.17 76.8987,160.337 79.5,157.5 Z"/></g>
<g><path style="opacity:1" fill="#5ea9db" d="M 199.5,179.5 C 200.805,181.397 201.471,183.731 201.5,186.5C 201.167,188.833 200.833,191.167 200.5,193.5C 199.507,188.88 199.173,184.214 199.5,179.5 Z"/></g>
<g><path style="opacity:1" fill="#167db6" d="M 131.5,175.5 C 131.739,177.467 131.406,179.301 130.5,181C 113.503,181.5 96.5033,181.667 79.5,181.5C 76.9142,178.994 76.9142,176.494 79.5,174C 96.1667,173.333 112.833,173.333 129.5,174C 130.416,174.278 131.082,174.778 131.5,175.5 Z"/></g>
<g><path style="opacity:1" fill="#9ec5dd" d="M 131.5,175.5 C 132.811,177.56 132.811,179.726 131.5,182C 113.995,182.829 96.6618,182.662 79.5,181.5C 96.5033,181.667 113.503,181.5 130.5,181C 131.406,179.301 131.739,177.467 131.5,175.5 Z"/></g>
<g><path style="opacity:1" fill="#589bd0" d="M 138.5,185.5 C 139.748,186.334 140.415,187.667 140.5,189.5C 140.167,190.833 139.833,192.167 139.5,193.5C 138.52,190.914 138.187,188.247 138.5,185.5 Z"/></g>
<g><path style="opacity:1" fill="#5a96c7" d="M 144.5,184.5 C 146.09,184.628 147.423,185.295 148.5,186.5C 147.313,186.554 145.98,186.887 144.5,187.5C 145.736,188.357 147.069,189.023 148.5,189.5C 149.731,190.651 149.731,191.817 148.5,193C 146.272,193.82 144.272,193.487 142.5,192C 148.929,192.507 149.096,191.34 143,188.5C 142.516,186.807 143.016,185.473 144.5,184.5 Z"/></g>
<g><path style="opacity:1" fill="#3883c1" d="M 183.5,182.5 C 184.186,183.848 185.186,185.015 186.5,186C 184.862,188.133 184.029,190.633 184,193.5C 183.503,191.19 183.337,188.857 183.5,186.5C 179.5,186.167 179.5,185.833 183.5,185.5C 183.5,184.5 183.5,183.5 183.5,182.5 Z"/></g>
<g><path style="opacity:1" fill="#468bc5" d="M 172.5,185.5 C 179.232,184.482 181.232,187.148 178.5,193.5C 177.526,191.257 177.192,188.924 177.5,186.5C 176.178,186.33 175.011,186.663 174,187.5C 173.667,189.5 173.333,191.5 173,193.5C 172.503,190.854 172.336,188.187 172.5,185.5 Z"/></g>
<g><path style="opacity:1" fill="#428cc5" d="M 151.5,180.5 C 159.543,180.003 161.21,182.836 156.5,189C 157.257,190.512 158.257,191.846 159.5,193C 158.833,193.667 158.167,193.667 157.5,193C 156.274,191.365 154.941,189.865 153.5,188.5C 152.702,190.078 152.202,191.744 152,193.5C 151.501,189.179 151.334,184.846 151.5,180.5 Z"/></g>
<g><path style="opacity:1" fill="#ecf5f3" d="M 152.5,181.5 C 157.159,181.015 158.492,182.848 156.5,187C 155.207,187.49 153.873,187.657 152.5,187.5C 152.5,185.5 152.5,183.5 152.5,181.5 Z"/></g>
<g><path style="opacity:1" fill="#488abe" d="M 163.5,184.5 C 167.192,184.324 169.192,185.991 169.5,189.5C 167.076,189.192 164.743,189.526 162.5,190.5C 163.935,192.401 165.602,192.734 167.5,191.5C 168.696,191.846 168.696,192.346 167.5,193C 164.099,194.135 162.099,192.968 161.5,189.5C 161.437,187.486 162.103,185.819 163.5,184.5 Z"/></g>
<g><path style="opacity:1" fill="#ebedf0" d="M 163.5,186.5 C 165.429,186.231 167.095,186.731 168.5,188C 166.5,188.667 164.5,188.667 162.5,188C 163.056,187.617 163.389,187.117 163.5,186.5 Z"/></g>
<g><path style="opacity:1" fill="#478ac1" d="M 193.5,192.5 C 189.15,193.994 187.317,192.328 188,187.5C 190.481,185.686 193.315,185.02 196.5,185.5C 196.813,188.247 196.48,190.914 195.5,193.5C 194.817,193.137 194.15,192.804 193.5,192.5 Z"/></g>
<g><path style="opacity:1" fill="#f6f7f4" d="M 193.5,192.5 C 189.65,192.299 188.65,190.466 190.5,187C 194.463,186.882 195.463,188.716 193.5,192.5 Z"/></g>
<g><path style="opacity:1" fill="#26588e" d="M 79.5,188.5 C 96.17,188.333 112.837,188.5 129.5,189C 132.946,190.896 133.28,193.23 130.5,196C 113.5,196.667 96.5,196.667 79.5,196C 76.9142,193.506 76.9142,191.006 79.5,188.5 Z"/></g>
<g><path style="opacity:1" fill="#2f3c70" d="M 92.5,203.5 C 100.507,203.334 108.507,203.5 116.5,204C 119.987,205.95 120.321,208.283 117.5,211C 109.167,211.667 100.833,211.667 92.5,211C 89.9142,208.506 89.9142,206.006 92.5,203.5 Z"/></g>
</svg>
