<?xml version="1.0" encoding="UTF-8"?>
<!DOCTYPE svg PUBLIC "-//W3C//DTD SVG 1.1//EN" "http://www.w3.org/Graphics/SVG/1.1/DTD/svg11.dtd">
<svg xmlns="http://www.w3.org/2000/svg" version="1.1" width="228px" height="242px" style="shape-rendering:geometricPrecision; text-rendering:geometricPrecision; image-rendering:optimizeQuality; fill-rule:evenodd; clip-rule:evenodd" xmlns:xlink="http://www.w3.org/1999/xlink">
<g><path style="opacity:1" fill="#fefefe" d="M -0.5,-0.5 C 75.5,-0.5 151.5,-0.5 227.5,-0.5C 227.5,80.1667 227.5,160.833 227.5,241.5C 151.5,241.5 75.5,241.5 -0.5,241.5C -0.5,160.833 -0.5,80.1667 -0.5,-0.5 Z"/></g>
<g><path style="opacity:1" fill="#2cc4fb" d="M 134.5,96.5 C 134.737,95.209 134.404,94.209 133.5,93.5C 134.8,92.1733 136.133,90.84 137.5,89.5C 134.805,85.9704 132.305,82.3037 130,78.5C 125.302,77.104 120.802,75.4373 116.5,73.5C 116.938,73.5654 117.272,73.3988 117.5,73C 116.244,72.5831 115.577,71.7498 115.5,70.5C 120.45,71.8788 125.45,72.7121 130.5,73C 137.833,68.6667 145.167,64.3333 152.5,60C 156.486,59.5012 160.486,59.3345 164.5,59.5C 164.5,68.1667 164.5,76.8333 164.5,85.5C 154.011,87.9512 144.011,91.6179 134.5,96.5 Z"/></g>
<g><path style="opacity:1" fill="#fbfcfe" d="M 76.5,88.5 C 71.2385,86.8007 66.0718,84.8007 61,82.5C 60.5007,77.5111 60.3341,72.5111 60.5,67.5C 60.5,66.1667 60.5,64.8333 60.5,63.5C 68.8923,63.7283 75.559,67.2283 80.5,74C 79.2409,78.8713 77.9076,83.7047 76.5,88.5 Z"/></g>
<g><path style="opacity:1" fill="#fbfefe" d="M 153.5,63.5 C 156.167,63.5 158.833,63.5 161.5,63.5C 161.83,69.8682 161.496,76.2015 160.5,82.5C 154.297,84.4011 148.13,86.4011 142,88.5C 138.479,84.6338 135.312,80.4672 132.5,76C 139.563,71.8072 146.563,67.6406 153.5,63.5 Z"/></g>
<g><path style="opacity:1" fill="#2a83d0" d="M 94.5,67.5 C 99.2745,67.6701 99.6078,68.6701 95.5,70.5C 91.6753,70.8855 88.0086,71.8855 84.5,73.5C 82.9067,79.1385 81.5734,84.8052 80.5,90.5C 79.1667,89.8333 77.8333,89.1667 76.5,88.5C 77.9076,83.7047 79.2409,78.8713 80.5,74C 75.559,67.2283 68.8923,63.7283 60.5,63.5C 60.5,64.8333 60.5,66.1667 60.5,67.5C 59.0347,65.4537 59.368,63.6204 61.5,62C 60.4366,60.8118 59.1033,60.3118 57.5,60.5C 57.5,68.8333 57.5,77.1667 57.5,85.5C 56.507,77.0161 56.1736,68.3494 56.5,59.5C 60.5138,59.3345 64.5138,59.5012 68.5,60C 73.5,63.1667 78.5,66.3333 83.5,69.5C 87.0278,68.0787 90.6945,67.412 94.5,67.5 Z"/></g>
<g><path style="opacity:1" fill="#f7fcfe" d="M 116.5,73.5 C 120.802,75.4373 125.302,77.104 130,78.5C 132.305,82.3037 134.805,85.9704 137.5,89.5C 136.133,90.84 134.8,92.1733 133.5,93.5C 132.078,93.2914 130.745,92.7914 129.5,92C 125.134,87.2993 120.467,82.966 115.5,79C 113.288,78.2109 111.288,78.3775 109.5,79.5C 106.824,80.8382 104.157,82.1715 101.5,83.5C 98.7183,83.141 98.0517,81.8077 99.5,79.5C 104.766,76.0179 110.433,74.0179 116.5,73.5 Z"/></g>
<g><path style="opacity:1" fill="#279ce1" d="M 94.5,67.5 C 97.6399,66.3592 100.973,66.1925 104.5,67C 108.161,68.5925 111.828,69.7592 115.5,70.5C 115.577,71.7498 116.244,72.5831 117.5,73C 117.272,73.3988 116.938,73.5654 116.5,73.5C 110.433,74.0179 104.766,76.0179 99.5,79.5C 98.0517,81.8077 98.7183,83.141 101.5,83.5C 104.157,82.1715 106.824,80.8382 109.5,79.5C 111.288,79.2148 112.955,79.5481 114.5,80.5C 115.55,81.4288 115.55,82.0954 114.5,82.5C 110.396,82.8839 106.729,84.3839 103.5,87C 97.1714,87.6675 94.6714,84.8342 96,78.5C 98.9904,75.5095 102.49,73.3428 106.5,72C 103.042,70.5845 99.3751,70.0845 95.5,70.5C 99.6078,68.6701 99.2745,67.6701 94.5,67.5 Z"/></g>
<g><path style="opacity:1" fill="#f6fbfd" d="M 95.5,70.5 C 99.3751,70.0845 103.042,70.5845 106.5,72C 102.49,73.3428 98.9904,75.5095 96,78.5C 94.6714,84.8342 97.1714,87.6675 103.5,87C 106.729,84.3839 110.396,82.8839 114.5,82.5C 119.12,86.7834 123.787,91.1168 128.5,95.5C 129.429,96.6888 129.762,98.0222 129.5,99.5C 125.487,97.6785 121.82,95.1785 118.5,92C 116.333,91.5 115.5,92.3333 116,94.5C 118.479,97.069 121.146,99.4023 124,101.5C 124.483,102.448 124.649,103.448 124.5,104.5C 122.692,104.509 121.025,104.009 119.5,103C 117.295,100.46 114.795,98.2932 112,96.5C 111.13,97.1079 110.63,97.9412 110.5,99C 114.13,102.117 117.13,105.617 119.5,109.5C 118.5,109.5 117.5,109.5 116.5,109.5C 114.933,108.319 114.099,106.653 114,104.5C 107.14,98.9729 100.973,92.8062 95.5,86C 91.3054,85.0132 88.3054,86.5132 86.5,90.5C 84.6104,93.0025 82.6104,93.0025 80.5,90.5C 81.5734,84.8052 82.9067,79.1385 84.5,73.5C 88.0086,71.8855 91.6753,70.8855 95.5,70.5 Z"/></g>
<g><path style="opacity:1" fill="#eaf3fa" d="M 91.5,96.5 C 86.6151,97.9527 85.6151,96.6194 88.5,92.5C 96.0802,88.4182 97.0802,89.7515 91.5,96.5 Z"/></g>
<g><path style="opacity:1" fill="#1a71c5" d="M 60.5,67.5 C 60.3341,72.5111 60.5007,77.5111 61,82.5C 66.0718,84.8007 71.2385,86.8007 76.5,88.5C 77.8333,89.1667 79.1667,89.8333 80.5,90.5C 82.6104,93.0025 84.6104,93.0025 86.5,90.5C 87.8333,90.5 88.5,91.1667 88.5,92.5C 85.6151,96.6194 86.6151,97.9527 91.5,96.5C 92.404,97.209 92.7373,98.209 92.5,99.5C 91.1667,100.5 91.1667,101.5 92.5,102.5C 93.5676,103.434 94.901,103.768 96.5,103.5C 96.2322,105.099 96.5655,106.432 97.5,107.5C 97.7352,108.097 98.2352,108.43 99,108.5C 100.011,107.944 100.844,107.278 101.5,106.5C 102.5,106.833 103.167,107.5 103.5,108.5C 102.699,110.042 102.366,111.708 102.5,113.5C 103.5,113.5 104.5,113.5 105.5,113.5C 107.063,114.945 108.396,116.611 109.5,118.5C 103.219,119.464 98.219,122.464 94.5,127.5C 94.573,125.973 93.9063,124.973 92.5,124.5C 94.9041,121.136 97.9041,118.47 101.5,116.5C 101.167,115.5 100.5,114.833 99.5,114.5C 97.6396,115.26 95.973,116.26 94.5,117.5C 94.4431,116.391 94.1098,115.391 93.5,114.5C 94.9738,113.416 95.8071,112.082 96,110.5C 91.0292,105.867 86.5292,100.867 82.5,95.5C 74.4953,91.3864 66.162,88.053 57.5,85.5C 57.5,77.1667 57.5,68.8333 57.5,60.5C 59.1033,60.3118 60.4366,60.8118 61.5,62C 59.368,63.6204 59.0347,65.4537 60.5,67.5 Z"/></g>
<g><path style="opacity:1" fill="#f9fbfd" d="M 92.5,102.5 C 91.1667,101.5 91.1667,100.5 92.5,99.5C 94.4807,97.8564 96.4807,96.1897 98.5,94.5C 99.5,94.8333 100.167,95.5 100.5,96.5C 98.6367,99.7124 95.97,101.712 92.5,102.5 Z"/></g>
<g><path style="opacity:1" fill="#29a2e5" d="M 109.5,79.5 C 111.288,78.3775 113.288,78.2109 115.5,79C 120.467,82.966 125.134,87.2993 129.5,92C 130.745,92.7914 132.078,93.2914 133.5,93.5C 134.404,94.209 134.737,95.209 134.5,96.5C 133.59,98.0188 132.757,99.6854 132,101.5C 129,101.833 127.333,103.5 127,106.5C 125.414,107.376 123.914,108.376 122.5,109.5C 127.511,112.923 132.011,116.923 136,121.5C 140.24,128.498 141.406,135.832 139.5,143.5C 139.816,140.022 139.316,136.688 138,133.5C 137.814,136.036 137.314,138.369 136.5,140.5C 137.593,130.187 133.926,122.02 125.5,116C 123.35,114.589 121.016,113.755 118.5,113.5C 118.804,112.85 119.137,112.183 119.5,111.5C 118.398,110.824 117.398,110.158 116.5,109.5C 117.5,109.5 118.5,109.5 119.5,109.5C 117.13,105.617 114.13,102.117 110.5,99C 110.63,97.9412 111.13,97.1079 112,96.5C 114.795,98.2932 117.295,100.46 119.5,103C 121.025,104.009 122.692,104.509 124.5,104.5C 124.649,103.448 124.483,102.448 124,101.5C 121.146,99.4023 118.479,97.069 116,94.5C 115.5,92.3333 116.333,91.5 118.5,92C 121.82,95.1785 125.487,97.6785 129.5,99.5C 129.762,98.0222 129.429,96.6888 128.5,95.5C 123.787,91.1168 119.12,86.7834 114.5,82.5C 115.55,82.0954 115.55,81.4288 114.5,80.5C 112.955,79.5481 111.288,79.2148 109.5,79.5 Z"/></g>
<g><path style="opacity:1" fill="#f3f8fc" d="M 101.5,106.5 C 100.844,107.278 100.011,107.944 99,108.5C 98.2352,108.43 97.7352,108.097 97.5,107.5C 98.2876,104.03 100.288,101.363 103.5,99.5C 104.5,99.8333 105.167,100.5 105.5,101.5C 104.143,103.186 102.81,104.852 101.5,106.5 Z"/></g>
<g><path style="opacity:1" fill="#218bd6" d="M 116.5,109.5 C 117.398,110.158 118.398,110.824 119.5,111.5C 119.137,112.183 118.804,112.85 118.5,113.5C 117.596,114.209 117.263,115.209 117.5,116.5C 127.224,119.73 132.557,126.563 133.5,137C 131.731,153.628 122.731,161.128 106.5,159.5C 108.924,159.808 111.257,159.474 113.5,158.5C 111.709,157.83 110.042,157.163 108.5,156.5C 124.575,155.914 131.408,147.581 129,131.5C 125.311,122.982 118.811,118.649 109.5,118.5C 108.396,116.611 107.063,114.945 105.5,113.5C 106.793,111.704 108.293,110.037 110,108.5C 110.49,107.207 110.657,105.873 110.5,104.5C 107.697,104.961 105.363,106.295 103.5,108.5C 103.167,107.5 102.5,106.833 101.5,106.5C 102.81,104.852 104.143,103.186 105.5,101.5C 105.167,100.5 104.5,99.8333 103.5,99.5C 100.288,101.363 98.2876,104.03 97.5,107.5C 96.5655,106.432 96.2322,105.099 96.5,103.5C 94.901,103.768 93.5676,103.434 92.5,102.5C 95.97,101.712 98.6367,99.7124 100.5,96.5C 100.167,95.5 99.5,94.8333 98.5,94.5C 96.4807,96.1897 94.4807,97.8564 92.5,99.5C 92.7373,98.209 92.404,97.209 91.5,96.5C 97.0802,89.7515 96.0802,88.4182 88.5,92.5C 88.5,91.1667 87.8333,90.5 86.5,90.5C 88.3054,86.5132 91.3054,85.0132 95.5,86C 100.973,92.8062 107.14,98.9729 114,104.5C 114.099,106.653 114.933,108.319 116.5,109.5 Z"/></g>
<g><path style="opacity:1" fill="#e3f0f9" d="M 105.5,113.5 C 104.5,113.5 103.5,113.5 102.5,113.5C 102.366,111.708 102.699,110.042 103.5,108.5C 105.363,106.295 107.697,104.961 110.5,104.5C 110.657,105.873 110.49,107.207 110,108.5C 108.293,110.037 106.793,111.704 105.5,113.5 Z"/></g>
<g><path style="opacity:1" fill="#eaf4fb" d="M 111.5,111.5 C 114.861,112.203 115.194,113.537 112.5,115.5C 110.358,114.563 110.024,113.23 111.5,111.5 Z"/></g>
<g><path style="opacity:1" fill="#eff5fb" d="M 118.5,113.5 C 121.016,113.755 123.35,114.589 125.5,116C 133.926,122.02 137.593,130.187 136.5,140.5C 135.653,148.535 131.986,154.868 125.5,159.5C 120.238,162.354 114.571,163.687 108.5,163.5C 91.5089,160.208 83.6755,149.874 85,132.5C 86.6804,126.453 89.8471,121.453 94.5,117.5C 95.973,116.26 97.6396,115.26 99.5,114.5C 100.5,114.833 101.167,115.5 101.5,116.5C 97.9041,118.47 94.9041,121.136 92.5,124.5C 85.9148,136.312 87.5814,146.812 97.5,156C 100.148,158.05 103.148,159.216 106.5,159.5C 122.731,161.128 131.731,153.628 133.5,137C 132.557,126.563 127.224,119.73 117.5,116.5C 117.263,115.209 117.596,114.209 118.5,113.5 Z"/></g>
<g><path style="opacity:1" fill="#16aff0" d="M 149.5,107.5 C 151.017,107.511 152.184,108.177 153,109.5C 155.973,113.974 159.14,118.307 162.5,122.5C 161.965,124.101 160.965,124.601 159.5,124C 157.38,121.591 155.38,119.091 153.5,116.5C 152.501,128.148 152.168,139.814 152.5,151.5C 151.5,151.5 150.5,151.5 149.5,151.5C 149.667,139.495 149.5,127.495 149,115.5C 146.833,118.333 144.667,121.167 142.5,124C 141.035,124.601 140.035,124.101 139.5,122.5C 143.102,117.615 146.435,112.615 149.5,107.5 Z"/></g>
<g><path style="opacity:1" fill="#1150af" d="M 74.5,117.5 C 74.2172,116.711 73.7172,116.044 73,115.5C 72.5001,127.495 72.3335,139.495 72.5,151.5C 71.5,151.5 70.5,151.5 69.5,151.5C 69.6665,139.495 69.4999,127.495 69,115.5C 68.2828,116.044 67.7828,116.711 67.5,117.5C 65.7211,119.546 64.0544,121.713 62.5,124C 61.0347,124.601 60.0347,124.101 59.5,122.5C 63.3333,117.5 67.1667,112.5 71,107.5C 74.8333,112.5 78.6667,117.5 82.5,122.5C 81.9653,124.101 80.9653,124.601 79.5,124C 77.9456,121.713 76.2789,119.546 74.5,117.5 Z"/></g>
<g><path style="opacity:1" fill="#f7fafd" d="M 109.5,118.5 C 118.811,118.649 125.311,122.982 129,131.5C 131.408,147.581 124.575,155.914 108.5,156.5C 94.9413,153.073 89.7746,144.406 93,130.5C 93.5133,129.473 94.0133,128.473 94.5,127.5C 98.219,122.464 103.219,119.464 109.5,118.5 Z"/></g>
<g><path style="opacity:1" fill="#b1c6e4" d="M 69.5,151.5 C 68.8333,140.167 68.1667,128.833 67.5,117.5C 67.7828,116.711 68.2828,116.044 69,115.5C 69.4999,127.495 69.6665,139.495 69.5,151.5 Z"/></g>
<g><path style="opacity:1" fill="#2177c9" d="M 109.5,121.5 C 110.5,121.5 111.5,121.5 112.5,121.5C 112.238,122.978 112.571,124.311 113.5,125.5C 116.995,126.655 118.995,128.988 119.5,132.5C 117.284,132.725 115.617,131.892 114.5,130C 111.571,129.223 108.737,129.39 106,130.5C 105.28,132.112 105.446,133.612 106.5,135C 111.422,134.621 115.588,136.121 119,139.5C 120.559,145.402 118.392,148.736 112.5,149.5C 112.5,150.833 112.5,152.167 112.5,153.5C 111.5,153.5 110.5,153.5 109.5,153.5C 109.5,152.167 109.5,150.833 109.5,149.5C 104.351,149.349 102.018,146.682 102.5,141.5C 103.5,141.5 104.5,141.5 105.5,141.5C 105.564,145.062 107.397,146.729 111,146.5C 116.281,146.26 117.448,144.093 114.5,140C 104.286,141.135 100.786,136.968 104,127.5C 105.584,126.139 107.418,125.472 109.5,125.5C 109.5,124.167 109.5,122.833 109.5,121.5 Z"/></g>
<g><path style="opacity:1" fill="#c9d8ed" d="M 74.5,117.5 C 73.8333,128.833 73.1667,140.167 72.5,151.5C 72.3335,139.495 72.5001,127.495 73,115.5C 73.7172,116.044 74.2172,116.711 74.5,117.5 Z"/></g>
<g><path style="opacity:1" fill="#2162ba" d="M 92.5,124.5 C 93.9063,124.973 94.573,125.973 94.5,127.5C 94.0133,128.473 93.5133,129.473 93,130.5C 89.7746,144.406 94.9413,153.073 108.5,156.5C 110.042,157.163 111.709,157.83 113.5,158.5C 111.257,159.474 108.924,159.808 106.5,159.5C 103.148,159.216 100.148,158.05 97.5,156C 87.5814,146.812 85.9148,136.312 92.5,124.5 Z"/></g>
<g><path style="opacity:1" fill="#1a5ab5" d="M 93.5,114.5 C 94.1098,115.391 94.4431,116.391 94.5,117.5C 89.8471,121.453 86.6804,126.453 85,132.5C 83.6755,149.874 91.5089,160.208 108.5,163.5C 110.631,164.314 112.964,164.814 115.5,165C 110.845,165.499 106.179,165.666 101.5,165.5C 90.5195,161.682 84.0195,154.016 82,142.5C 80.0933,130.665 83.9266,121.331 93.5,114.5 Z"/></g>
<g><path style="opacity:1" fill="#0345a8" d="M 69.5,155.5 C 70.5,155.5 71.5,155.5 72.5,155.5C 72.5,156.5 72.5,157.5 72.5,158.5C 71.5,158.5 70.5,158.5 69.5,158.5C 69.5,157.5 69.5,156.5 69.5,155.5 Z"/></g>
<g><path style="opacity:1" fill="#39a3e4" d="M 149.5,154.5 C 150.5,154.5 151.5,154.5 152.5,154.5C 152.5,155.833 152.5,157.167 152.5,158.5C 151.5,158.5 150.5,158.5 149.5,158.5C 149.5,157.167 149.5,155.833 149.5,154.5 Z"/></g>
<g><path style="opacity:1" fill="#2388d4" d="M 139.5,143.5 C 137.914,151.746 133.581,158.08 126.5,162.5C 126.737,161.209 126.404,160.209 125.5,159.5C 131.986,154.868 135.653,148.535 136.5,140.5C 137.314,138.369 137.814,136.036 138,133.5C 139.316,136.688 139.816,140.022 139.5,143.5 Z"/></g>
<g><path style="opacity:1" fill="#2370c3" d="M 125.5,159.5 C 126.404,160.209 126.737,161.209 126.5,162.5C 124.578,163.757 122.578,164.923 120.5,166C 113.986,166.82 107.653,166.653 101.5,165.5C 106.179,165.666 110.845,165.499 115.5,165C 112.964,164.814 110.631,164.314 108.5,163.5C 114.571,163.687 120.238,162.354 125.5,159.5 Z"/></g>
<g><path style="opacity:1" fill="#7aa9cf" d="M 48.5,179.5 C 49.8333,179.5 51.1667,179.5 52.5,179.5C 52.5,180.833 52.5,182.167 52.5,183.5C 51.1667,183.5 49.8333,183.5 48.5,183.5C 48.5,182.167 48.5,180.833 48.5,179.5 Z"/></g>
<g><path style="opacity:1" fill="#2281b9" d="M 80.5,181.5 C 83.941,181.301 87.2744,181.801 90.5,183C 92.1554,184.444 92.822,186.278 92.5,188.5C 89.4485,188.546 86.7819,187.546 84.5,185.5C 83.5,185.833 82.8333,186.5 82.5,187.5C 85.9609,188.987 89.4609,190.654 93,192.5C 93.6667,194.833 93.6667,197.167 93,199.5C 92.5,200.667 91.6667,201.5 90.5,202C 87.1667,202.667 83.8333,202.667 80.5,202C 78.0807,200.491 77.0807,198.325 77.5,195.5C 80.6268,195.486 83.2935,196.486 85.5,198.5C 87.0004,198.547 88.0004,197.881 88.5,196.5C 85.2569,194.837 81.9236,193.171 78.5,191.5C 76.8097,187.631 77.4764,184.298 80.5,181.5 Z"/></g>
<g><path style="opacity:1" fill="#2281b9" d="M 104.5,181.5 C 106.5,181.5 108.5,181.5 110.5,181.5C 112.74,188.484 115.407,195.317 118.5,202C 117.5,202.167 116.5,202.333 115.5,202.5C 113.177,200.575 110.51,199.242 107.5,198.5C 104.49,199.242 101.823,200.575 99.5,202.5C 98.5,202.333 97.5,202.167 96.5,202C 99.5864,195.328 102.253,188.494 104.5,181.5 Z"/></g>
<g><path style="opacity:1" fill="#adc9e0" d="M 124.5,181.5 C 124.5,188.5 124.5,195.5 124.5,202.5C 128.833,202.5 133.167,202.5 137.5,202.5C 133.03,203.486 128.363,203.819 123.5,203.5C 123.175,195.981 123.508,188.648 124.5,181.5 Z"/></g>
<g><path style="opacity:1" fill="#107eb8" d="M 124.5,181.5 C 126.167,181.5 127.833,181.5 129.5,181.5C 129.5,187.167 129.5,192.833 129.5,198.5C 132.167,198.5 134.833,198.5 137.5,198.5C 137.5,199.833 137.5,201.167 137.5,202.5C 133.167,202.5 128.833,202.5 124.5,202.5C 124.5,195.5 124.5,188.5 124.5,181.5 Z"/></g>
<g><path style="opacity:1" fill="#187fb8" d="M 143.5,181.5 C 147.833,181.5 152.167,181.5 156.5,181.5C 156.5,183.167 156.5,184.833 156.5,186.5C 153.833,186.5 151.167,186.5 148.5,186.5C 148.5,187.5 148.5,188.5 148.5,189.5C 150.833,189.5 153.167,189.5 155.5,189.5C 155.5,190.833 155.5,192.167 155.5,193.5C 153.167,193.5 150.833,193.5 148.5,193.5C 148.5,195.167 148.5,196.833 148.5,198.5C 151.167,198.5 153.833,198.5 156.5,198.5C 156.5,199.833 156.5,201.167 156.5,202.5C 152.167,202.5 147.833,202.5 143.5,202.5C 143.5,195.5 143.5,188.5 143.5,181.5 Z"/></g>
<g><path style="opacity:1" fill="#2281b9" d="M 165.5,181.5 C 168.941,181.301 172.274,181.801 175.5,183C 177.155,184.444 177.822,186.278 177.5,188.5C 174.449,188.546 171.782,187.546 169.5,185.5C 168.5,185.833 167.833,186.5 167.5,187.5C 170.961,188.987 174.461,190.654 178,192.5C 178.667,194.833 178.667,197.167 178,199.5C 177.5,200.667 176.667,201.5 175.5,202C 172.167,202.667 168.833,202.667 165.5,202C 163.081,200.491 162.081,198.325 162.5,195.5C 165.627,195.486 168.293,196.486 170.5,198.5C 172,198.547 173,197.881 173.5,196.5C 170.257,194.837 166.924,193.171 163.5,191.5C 161.81,187.631 162.476,184.298 165.5,181.5 Z"/></g>
<g><path style="opacity:1" fill="#107eb8" d="M 51.5,185.5 C 51.5,191.167 51.5,196.833 51.5,202.5C 50.5,202.5 49.5,202.5 48.5,202.5C 48.5,196.833 48.5,191.167 48.5,185.5C 49.5,185.5 50.5,185.5 51.5,185.5 Z"/></g>
<g><path style="opacity:1" fill="#aecae0" d="M 51.5,185.5 C 52.4896,191.31 52.8229,197.31 52.5,203.5C 50.901,203.768 49.5676,203.434 48.5,202.5C 49.5,202.5 50.5,202.5 51.5,202.5C 51.5,196.833 51.5,191.167 51.5,185.5 Z"/></g>
<g><path style="opacity:1" fill="#3286bc" d="M 61.5,185.5 C 63.8568,185.337 66.1902,185.503 68.5,186C 70.0368,187.11 70.7035,188.61 70.5,190.5C 68.3254,190.318 66.3254,189.651 64.5,188.5C 61.8152,188.708 61.1485,189.875 62.5,192C 68.7948,191.627 71.6282,194.46 71,200.5C 67.8169,202.523 64.3169,203.023 60.5,202C 58.9632,200.89 58.2965,199.39 58.5,197.5C 60.973,197.799 63.1397,198.799 65,200.5C 67.5,199.667 68,198.167 66.5,196C 60.0549,196.402 57.5549,193.569 59,187.5C 59.9947,186.934 60.828,186.267 61.5,185.5 Z"/></g>
<g><path style="opacity:1" fill="#ecf2f7" d="M 106.5,190.5 C 108.121,190.787 109.121,191.787 109.5,193.5C 108.167,194.833 106.833,194.833 105.5,193.5C 106.127,192.583 106.461,191.583 106.5,190.5 Z"/></g>
<g><path style="opacity:1" fill="#afcae0" d="M 143.5,181.5 C 143.5,188.5 143.5,195.5 143.5,202.5C 147.833,202.5 152.167,202.5 156.5,202.5C 156.5,201.167 156.5,199.833 156.5,198.5C 157.451,199.919 157.784,201.585 157.5,203.5C 152.5,203.5 147.5,203.5 142.5,203.5C 142.175,195.981 142.508,188.648 143.5,181.5 Z"/></g>
</svg>
