<?xml version="1.0" encoding="UTF-8"?>
<!DOCTYPE svg PUBLIC "-//W3C//DTD SVG 1.1//EN" "http://www.w3.org/Graphics/SVG/1.1/DTD/svg11.dtd">
<svg xmlns="http://www.w3.org/2000/svg" version="1.1" width="230px" height="225px" style="shape-rendering:geometricPrecision; text-rendering:geometricPrecision; image-rendering:optimizeQuality; fill-rule:evenodd; clip-rule:evenodd" xmlns:xlink="http://www.w3.org/1999/xlink">
<g><path style="opacity:1" fill="#fefefe" d="M -0.5,-0.5 C 76.1667,-0.5 152.833,-0.5 229.5,-0.5C 229.5,74.5 229.5,149.5 229.5,224.5C 152.833,224.5 76.1667,224.5 -0.5,224.5C -0.5,149.5 -0.5,74.5 -0.5,-0.5 Z"/></g>
<g><path style="opacity:1" fill="#2182ba" d="M 97.5,37.5 C 132.661,38.4911 149.161,56.4911 147,91.5C 138.915,117.892 121.081,129.392 93.5,126C 64.9408,115.385 54.4408,95.2185 62,65.5C 69.2681,50.2933 81.1015,40.9599 97.5,37.5 Z"/></g>
<g><path style="opacity:1" fill="#fdfefe" d="M 94.5,44.5 C 118.27,42.1132 133.77,52.1132 141,74.5C 142.326,104.173 128.16,119.34 98.5,120C 73.0905,113.58 62.5905,97.413 67,71.5C 71.6811,57.9133 80.8478,48.9133 94.5,44.5 Z"/></g>
<g><path style="opacity:1" fill="#07aeea" d="M 106.5,53.5 C 106.5,62.1667 106.5,70.8333 106.5,79.5C 112.167,79.5 117.833,79.5 123.5,79.5C 125.745,80.8278 126.078,82.6612 124.5,85C 116.587,85.8141 108.754,85.6474 101,84.5C 100.333,73.5 100.333,62.5 101,51.5C 103.811,49.8203 105.644,50.4869 106.5,53.5 Z"/></g>
<g><path style="opacity:1" fill="#9adef6" d="M 106.5,53.5 C 107.493,61.6499 107.826,69.9832 107.5,78.5C 113.026,78.1786 118.36,78.5119 123.5,79.5C 117.833,79.5 112.167,79.5 106.5,79.5C 106.5,70.8333 106.5,62.1667 106.5,53.5 Z"/></g>
<g><path style="opacity:1" fill="#27a6df" d="M 78.5,129.5 C 94.1702,129.333 109.837,129.5 125.5,130C 127.648,132.075 127.982,134.408 126.5,137C 110.167,137.667 93.8333,137.667 77.5,137C 76.0825,134.257 76.4159,131.757 78.5,129.5 Z"/></g>
<g><path style="opacity:1" fill="#1d80b8" d="M 78.5,144.5 C 94.1702,144.333 109.837,144.5 125.5,145C 129.5,147.333 129.5,149.667 125.5,152C 109.833,152.667 94.1667,152.667 78.5,152C 75.9142,149.506 75.9142,147.006 78.5,144.5 Z"/></g>
<g><path style="opacity:1" fill="#207ec3" d="M 147.5,155.5 C 151.967,154.138 153.633,154.138 152.5,155.5C 152.167,171.5 151.833,171.5 151.5,155.5C 150.167,155.5 148.833,155.5 147.5,155.5 Z"/></g>
<g><path style="opacity:1" fill="#589bd0" d="M 136.5,159.5 C 137.748,160.334 138.415,161.667 138.5,163.5C 138.167,164.833 137.833,166.167 137.5,167.5C 136.52,164.914 136.187,162.247 136.5,159.5 Z"/></g>
<g><path style="opacity:1" fill="#5a96c7" d="M 142.5,158.5 C 144.09,158.628 145.423,159.295 146.5,160.5C 145.313,160.554 143.98,160.887 142.5,161.5C 143.736,162.357 145.069,163.023 146.5,163.5C 147.731,164.651 147.731,165.817 146.5,167C 144.272,167.82 142.272,167.487 140.5,166C 146.929,166.507 147.096,165.34 141,162.5C 140.516,160.807 141.016,159.473 142.5,158.5 Z"/></g>
<g><path style="opacity:1" fill="#589bd0" d="M 157.5,159.5 C 158.748,160.334 159.415,161.667 159.5,163.5C 159.167,164.833 158.833,166.167 158.5,167.5C 157.52,164.914 157.187,162.247 157.5,159.5 Z"/></g>
<g><path style="opacity:1" fill="#5698cc" d="M 164.5,158.5 C 167.162,159.639 169.829,159.806 172.5,159C 174.65,161.555 174.983,164.388 173.5,167.5C 172.526,165.257 172.192,162.924 172.5,160.5C 171.5,160.5 170.5,160.5 169.5,160.5C 168.833,169.833 168.167,169.833 167.5,160.5C 166.178,160.33 165.011,160.663 164,161.5C 163.667,163.5 163.333,165.5 163,167.5C 162.094,164.156 162.594,161.156 164.5,158.5 Z"/></g>
<g><path style="opacity:1" fill="#2b5b90" d="M 78.5,158.5 C 94.1702,158.333 109.837,158.5 125.5,159C 128.946,160.896 129.28,163.23 126.5,166C 110.5,166.667 94.5,166.667 78.5,166C 75.9142,163.506 75.9142,161.006 78.5,158.5 Z"/></g>
<g><path style="opacity:1" fill="#4a8dc1" d="M 179.5,158.5 C 182.272,158.595 184.272,159.929 185.5,162.5C 183.167,163.167 180.833,163.833 178.5,164.5C 179.748,166.69 181.414,167.023 183.5,165.5C 184.696,165.846 184.696,166.346 183.5,167C 176,167.196 174.667,164.363 179.5,158.5 Z"/></g>
<g><path style="opacity:1" fill="#fefaf5" d="M 179.5,160.5 C 181.103,160.312 182.437,160.812 183.5,162C 181.833,162.667 180.167,162.667 178.5,162C 179.056,161.617 179.389,161.117 179.5,160.5 Z"/></g>
<g><path style="opacity:1" fill="#344175" d="M 91.5,172.5 C 98.5079,172.334 105.508,172.5 112.5,173C 116.674,174.508 117.341,176.841 114.5,180C 106.5,180.667 98.5,180.667 90.5,180C 89.0825,177.257 89.4159,174.757 91.5,172.5 Z"/></g>
</svg>
